<?xml version="1.0" standalone="no"?>
<!DOCTYPE svg PUBLIC "-//W3C//DTD SVG 20010904//EN"
 "http://www.w3.org/TR/2001/REC-SVG-20010904/DTD/svg10.dtd">
<svg version="1.0" xmlns="http://www.w3.org/2000/svg"
 width="1254.000000pt" height="1254.000000pt" viewBox="0 0 1254.000000 1254.000000"
 preserveAspectRatio="xMidYMid meet">

<g transform="translate(0.000000,1254.000000) scale(0.100000,-0.100000)"
fill="#000000" stroke="none">
<path d="M0 6270 l0 -6270 6270 0 6270 0 0 6270 0 6270 -6270 0 -6270 0 0
-6270z m7430 5915 c40 -21 70 -63 70 -99 0 -24 -15 -48 -67 -106 -71 -80 -364
-403 -553 -609 -184 -201 -437 -486 -456 -515 -16 -26 -16 -28 3 -54 11 -15
27 -28 34 -30 8 -1 98 86 199 195 322 344 548 582 751 791 181 186 199 202
231 202 68 0 158 -89 158 -156 0 -32 -73 -119 -410 -488 -189 -208 -506 -560
-664 -739 l-69 -78 35 -35 35 -35 234 248 c129 136 279 295 334 353 55 58 210
221 343 363 202 214 248 257 270 257 39 0 131 -94 138 -141 6 -33 -1 -43 -153
-215 -87 -100 -293 -331 -458 -515 -165 -183 -346 -385 -402 -448 l-103 -116
24 -23 c23 -23 24 -24 57 -7 63 32 371 352 864 900 273 304 273 304 340 273
94 -43 -66 -335 -459 -838 -396 -507 -682 -772 -1143 -1059 -46 -28 -87 -51
-93 -51 -28 0 3 -38 153 -185 254 -250 564 -512 987 -835 354 -270 416 -328
408 -381 -3 -24 28 -44 349 -220 l71 -40 96 193 c161 328 335 615 539 891 48
64 87 118 87 120 0 1 -42 1 -92 -1 -113 -4 -206 9 -390 54 -549 135 -887 134
-1226 -3 -47 -18 -86 -32 -87 -31 -7 7 46 192 73 256 91 217 315 437 555 546
101 46 245 91 358 112 128 24 380 24 508 1 52 -10 95 -16 96 -15 2 3 -110 186
-206 338 -66 104 -198 238 -301 307 -43 28 -127 75 -188 104 -60 29 -110 57
-110 61 0 5 32 29 70 54 235 152 526 207 797 150 326 -69 623 -300 766 -598
18 -37 34 -67 37 -67 3 0 21 25 40 55 47 74 153 173 235 219 37 21 108 51 158
68 80 26 107 30 212 30 66 1 145 -4 177 -11 69 -16 201 -66 246 -94 l33 -20
-37 -26 -38 -25 55 -14 c130 -33 265 -119 338 -215 88 -117 129 -238 138 -404
5 -102 -11 -304 -24 -304 -10 0 -194 154 -222 185 l-29 33 -8 -38 -9 -38 -80
25 c-105 31 -189 39 -256 23 -115 -27 -115 -28 11 -69 206 -68 367 -168 525
-326 152 -151 260 -327 330 -538 57 -171 68 -256 62 -457 -8 -238 -35 -348
-135 -545 -79 -156 -71 -154 -121 -24 -124 319 -311 561 -640 826 -57 46 -105
82 -107 80 -2 -2 1 -41 6 -88 41 -359 -49 -780 -234 -1094 -95 -160 -215 -303
-324 -385 -37 -27 -69 -50 -72 -50 -3 0 -6 44 -7 98 -4 278 -50 462 -265 1067
-114 319 -172 493 -189 571 -7 30 -15 54 -18 54 -3 0 -13 -12 -22 -28 -9 -15
-41 -70 -71 -123 -192 -329 -345 -714 -438 -1096 -17 -67 -30 -126 -30 -132 0
-5 48 -39 108 -74 317 -190 630 -341 982 -472 263 -99 469 -195 507 -237 17
-19 16 -20 -7 -39 -14 -10 -40 -24 -57 -31 -18 -7 -33 -14 -33 -18 0 -3 29
-21 63 -42 97 -56 202 -143 250 -206 54 -70 70 -101 92 -176 15 -51 16 -67 5
-113 -13 -60 -13 -60 -105 -38 -32 8 -60 13 -61 12 -1 -1 3 -28 8 -60 12 -67
-1 -133 -34 -179 -17 -25 -24 -28 -52 -22 -28 6 -122 46 -186 79 l-25 13 0
-77 c0 -85 -24 -151 -55 -151 -26 0 -73 21 -194 89 -60 34 -110 61 -112 61 -2
0 -4 -24 -4 -52 0 -64 -8 -98 -24 -98 -6 0 -44 16 -85 35 -40 19 -74 35 -75
35 -2 0 1 -24 6 -52 14 -81 13 -460 -1 -573 -15 -121 -36 -207 -62 -255 l-20
-35 5 55 c3 30 9 188 12 350 5 237 3 327 -10 459 -9 90 -19 168 -22 172 -9 15
3 10 99 -41 52 -27 97 -50 102 -50 14 0 -3 107 -24 156 -12 26 -20 48 -19 50
3 2 81 -42 293 -164 49 -29 93 -52 97 -52 35 0 21 156 -21 239 -12 22 -21 42
-21 45 0 3 71 -31 159 -74 87 -44 165 -80 174 -80 41 0 33 129 -13 227 -16 36
-29 67 -28 68 2 2 46 -10 98 -26 128 -39 134 -38 127 8 -24 145 -185 299 -461
439 -53 27 -96 51 -96 54 0 3 38 11 85 17 132 18 135 25 34 72 -48 23 -178 76
-290 120 -317 122 -392 154 -598 253 -132 63 -385 203 -516 286 -79 49 -80 50
-78 88 6 85 86 379 158 578 20 55 34 106 33 115 -2 9 4 23 13 31 9 8 30 49 47
90 16 41 60 137 97 212 37 76 64 141 61 147 -3 5 0 11 8 14 14 6 109 160 121
197 3 11 11 20 16 20 5 0 14 12 20 28 14 36 160 264 166 258 2 -2 0 -21 -6
-43 -25 -87 1 -327 36 -340 7 -3 29 5 50 18 45 28 155 118 166 136 4 7 12 13
17 13 16 0 -71 -119 -143 -196 l-67 -72 26 -79 c14 -43 31 -88 38 -101 l12
-23 75 49 c40 27 105 75 144 108 38 32 65 52 60 44 -23 -40 -139 -181 -189
-230 -31 -30 -56 -62 -56 -71 0 -26 66 -203 77 -206 12 -4 170 152 204 201 39
59 39 41 -1 -37 -43 -85 -57 -108 -124 -200 l-49 -69 39 -116 c21 -64 41 -120
44 -125 7 -9 150 132 180 178 11 17 20 27 20 22 0 -20 -93 -202 -128 -251
l-39 -56 26 -106 26 -106 38 43 c21 24 50 63 64 87 13 23 27 42 29 42 8 0 -17
-42 -71 -122 l-53 -77 9 -68 c4 -37 8 -90 9 -118 l0 -50 23 25 c75 83 132 156
183 235 l59 90 0 98 c0 126 20 131 27 7 l3 -45 35 80 c32 74 34 87 35 185 0
58 -3 120 -7 138 -14 62 8 31 27 -38 22 -80 27 -75 45 35 13 80 -5 178 -57
310 -51 132 -48 123 -30 105 8 -8 40 -52 71 -98 l56 -83 0 78 c-1 88 -11 143
-42 223 -23 59 -94 173 -141 227 -16 18 -25 33 -20 33 9 0 81 -78 162 -175
l34 -40 -7 35 c-17 86 -71 235 -111 305 -46 80 -111 166 -123 163 -4 -2 -34
16 -67 38 -33 23 -93 58 -132 79 -40 21 -73 39 -73 41 0 7 70 -22 115 -49 28
-16 52 -29 55 -28 3 0 24 -15 48 -34 58 -49 53 -27 -5 25 -98 87 -207 151
-308 182 l-60 18 75 -4 c96 -6 152 -26 246 -87 135 -89 297 -271 373 -421 25
-51 48 -78 92 -113 32 -25 63 -43 69 -40 22 13 69 122 96 220 l13 50 -4 -85
c-4 -72 -18 -146 -41 -222 -3 -11 17 -35 66 -77 39 -34 74 -61 79 -61 15 0 82
161 97 234 9 39 18 73 21 76 3 3 3 -38 0 -90 -5 -81 -30 -207 -52 -261 -4 -10
18 -40 66 -92 39 -42 75 -77 80 -77 21 0 71 123 104 255 14 53 23 78 24 60 1
-49 -27 -235 -44 -295 -9 -30 -18 -64 -21 -75 -4 -14 12 -43 50 -94 l56 -74
15 36 c8 20 15 41 15 47 0 5 4 10 9 10 9 0 3 -70 -9 -105 -5 -13 5 -45 31 -99
22 -44 39 -88 39 -98 0 -44 20 -9 54 95 48 148 58 213 58 387 1 211 -35 359
-133 553 -190 376 -536 619 -938 657 -199 19 -474 -29 -629 -109 -73 -38 -75
-38 -42 -11 82 71 322 168 460 186 27 4 50 10 50 15 0 14 -106 60 -158 68 -86
13 -73 24 21 17 51 -4 121 -17 166 -32 l77 -25 57 25 c31 14 57 30 57 37 0 31
-143 129 -234 161 -69 24 -42 23 56 -3 93 -23 136 -43 203 -94 42 -33 52 -36
89 -31 69 11 72 16 44 77 -30 65 -95 144 -151 182 -63 43 -58 44 17 3 94 -51
139 -89 201 -172 49 -65 58 -72 97 -77 24 -3 61 -9 82 -13 l39 -7 -7 37 c-16
85 -103 251 -132 251 -5 0 -35 22 -65 49 l-54 48 42 -22 c23 -13 40 -26 38
-30 -3 -4 4 -15 15 -25 22 -20 28 -7 8 15 -7 7 16 -11 52 -39 93 -76 211 -193
293 -290 60 -72 72 -81 78 -65 25 63 -6 254 -58 364 -65 136 -179 224 -349
271 -66 18 -97 21 -198 17 -81 -3 -134 -10 -158 -21 -50 -21 -48 -8 5 30 59
42 101 63 182 89 l69 22 -54 16 c-188 57 -418 36 -573 -53 -109 -62 -203 -161
-257 -268 -28 -54 -29 -62 -29 -202 0 -153 -7 -300 -14 -308 -3 -2 -5 40 -6
94 -2 326 -181 681 -442 874 -73 54 -197 119 -284 149 -153 53 -387 66 -546
31 -99 -22 -261 -82 -239 -89 8 -2 45 -17 82 -33 65 -29 69 -29 155 -19 121
14 138 12 68 -9 -65 -18 -85 -28 -85 -40 0 -5 23 -26 51 -48 49 -38 54 -40 93
-31 46 11 297 4 320 -9 9 -5 -22 -8 -77 -9 -86 0 -186 -21 -211 -45 -5 -4 11
-31 36 -60 l45 -53 94 -2 c52 -1 119 -9 149 -17 56 -16 166 -62 120 -51 -90
21 -289 10 -305 -17 -3 -4 15 -41 40 -82 l45 -74 104 -6 c73 -4 127 -14 182
-32 98 -33 118 -49 34 -28 -52 13 -77 14 -153 5 -50 -6 -94 -15 -99 -20 -6 -6
5 -33 28 -69 l37 -60 76 -6 c73 -6 206 -40 225 -57 4 -5 -11 -4 -35 2 -43 9
-132 4 -172 -11 -16 -6 -4 -18 69 -71 129 -94 252 -200 308 -265 l50 -58 -75
55 c-218 161 -393 248 -619 305 -95 24 -123 27 -300 27 -150 1 -214 -3 -277
-17 -387 -83 -685 -304 -813 -602 -11 -26 -20 -48 -20 -50 0 -2 17 5 38 15 20
10 56 23 80 29 36 10 46 19 66 60 14 26 32 54 42 61 12 11 10 0 -10 -37 -34
-69 -33 -73 12 -62 20 5 58 9 84 9 41 0 50 4 64 28 72 118 157 217 233 272 32
22 31 19 -19 -46 -52 -67 -102 -162 -115 -215 l-7 -27 89 -6 c48 -4 95 -9 105
-12 11 -3 35 19 77 75 34 43 93 107 132 141 70 63 126 127 117 135 -3 3 -38
-6 -78 -20 l-73 -25 24 26 c25 27 116 84 134 84 6 -1 2 -5 -7 -11 -10 -5 -22
-18 -28 -29 -9 -17 -7 -18 20 -10 35 10 89 50 89 66 2 21 56 37 136 40 44 1
70 0 58 -2 -12 -3 -27 -12 -35 -21 -12 -14 -9 -15 22 -10 98 17 130 19 130 8
0 -6 -19 -11 -46 -11 -53 0 -178 -40 -244 -77 -25 -14 -76 -55 -115 -92 -38
-36 -60 -55 -49 -41 34 41 39 57 10 30 -56 -50 -162 -247 -144 -265 3 -3 50
-13 106 -24 l100 -18 26 25 25 26 -2 -30 c-2 -27 2 -30 50 -46 29 -10 70 -20
92 -24 38 -6 39 -6 77 52 39 59 183 218 191 210 2 -2 -10 -24 -27 -49 -30 -45
-93 -173 -105 -214 -5 -18 -1 -25 18 -32 31 -12 189 -31 200 -24 5 3 21 31 36
63 29 61 91 163 97 158 1 -2 -6 -35 -17 -73 -10 -38 -19 -87 -19 -107 l0 -38
58 0 c50 0 88 8 167 35 17 6 18 5 5 -7 -8 -7 -45 -49 -80 -93 -290 -355 -554
-787 -756 -1237 -25 -57 -47 -105 -49 -106 -5 -5 -255 131 -480 262 -104 60
-207 119 -227 130 -49 27 -48 35 5 25 23 -4 62 -8 86 -9 l44 0 -24 26 c-13 15
-118 97 -234 184 -282 211 -586 454 -775 619 -148 129 -550 524 -550 540 0 4
24 21 53 36 185 101 406 247 567 376 208 166 354 313 594 599 302 360 612 818
577 853 -6 6 -12 9 -14 6 -2 -2 -102 -116 -222 -254 -313 -358 -488 -549 -660
-720 -237 -237 -283 -257 -378 -166 l-51 48 20 31 c16 25 728 824 920 1032 96
104 194 222 194 234 0 7 -15 26 -32 43 l-33 32 -95 -103 c-192 -206 -768 -816
-916 -968 -91 -95 -160 -158 -172 -158 -21 0 -152 131 -152 152 0 7 8 25 18
39 17 27 336 383 552 619 138 150 454 499 528 583 28 33 52 66 52 72 0 15 -66
78 -77 74 -10 -4 -276 -280 -861 -892 -167 -174 -311 -317 -320 -317 -23 1
-41 16 -96 84 -60 74 -58 82 37 196 95 113 561 626 909 1001 59 65 108 122
108 127 0 15 -50 52 -70 52 -20 0 -306 -274 -658 -633 -235 -239 -310 -317
-456 -475 -26 -30 -49 -52 -51 -50 -2 2 -30 44 -63 93 -301 449 -751 806
-1131 897 -69 16 -106 19 -186 15 -137 -7 -186 -26 -261 -101 -73 -73 -121
-167 -155 -306 -21 -85 -24 -118 -24 -305 0 -249 6 -323 40 -489 34 -171 59
-261 112 -411 166 -467 422 -837 726 -1050 37 -26 67 -49 67 -52 0 -13 -178
-208 -278 -305 -256 -247 -512 -440 -854 -644 -161 -96 -171 -104 -162 -127 7
-20 24 -25 111 -35 l63 -7 -107 -72 c-59 -39 -109 -70 -111 -69 -3 3 -4 522
-2 856 l0 125 69 32 c87 41 114 76 119 152 4 73 -20 114 -86 144 -46 22 -56
22 -592 25 -360 2 -562 -1 -595 -8 -99 -21 -159 -84 -157 -166 1 -80 42 -126
145 -160 l47 -16 0 -126 c2 -529 -1 -1205 -5 -1212 -3 -5 -1 -11 4 -14 5 -3 5
-24 0 -48 -4 -24 -8 -95 -9 -159 0 -107 -2 -117 -22 -136 -24 -21 -185 -136
-398 -283 l-123 -84 34 -14 c18 -8 51 -17 74 -21 l40 -7 -85 -50 c-47 -28
-114 -66 -150 -86 -36 -19 -121 -66 -190 -104 -156 -85 -301 -179 -360 -234
-51 -48 -49 -51 46 -64 l51 -7 -55 -52 c-75 -71 -139 -161 -159 -223 -18 -59
-13 -84 17 -84 17 0 116 25 181 45 17 6 18 4 4 -29 -31 -73 -8 -246 31 -246
24 0 81 27 130 60 25 18 47 30 48 28 2 -1 9 -32 15 -68 7 -36 24 -90 37 -119
l25 -55 102 100 c146 144 137 140 135 52 0 -48 5 -86 16 -111 20 -44 15 -46
151 48 l90 62 -3 -246 c-3 -254 7 -404 24 -366 50 109 147 262 264 415 78 103
322 350 407 412 l62 46 -61 6 c-83 10 -156 39 -226 90 -104 77 -155 185 -168
353 -6 88 14 411 40 623 7 58 12 107 10 109 -2 2 -10 -4 -19 -13 -9 -9 -25
-21 -36 -26 -35 -19 -19 -97 17 -83 8 3 14 1 14 -5 0 -16 -28 -34 -41 -26 -7
4 -9 3 -6 -3 8 -13 -45 -35 -118 -51 -54 -12 -155 -23 -155 -16 0 2 75 54 167
116 92 62 171 116 175 119 5 3 24 106 43 230 93 598 173 844 317 974 135 123
353 108 433 -29 52 -89 51 -162 -1 -331 -112 -359 -226 -972 -250 -1352 -7
-102 -7 -103 16 -103 36 0 195 84 345 184 77 51 150 98 163 105 18 10 22 20
22 59 0 107 75 309 164 441 40 59 45 72 19 49 -10 -9 -29 -19 -43 -23 -27 -8
-110 -54 -110 -61 0 -3 9 0 21 6 11 7 23 9 26 6 4 -3 13 0 22 7 14 11 14 10 2
-5 -7 -10 -17 -15 -22 -12 -5 3 -6 -1 -3 -9 3 -8 -2 -21 -11 -30 -42 -43 -286
-197 -311 -197 -4 0 2 10 13 23 11 12 38 48 58 80 27 40 55 68 94 91 76 46
278 146 283 141 2 -3 39 34 82 80 78 85 212 198 274 229 19 10 31 20 28 23 -3
3 -14 0 -23 -8 -10 -7 5 12 33 42 81 87 84 98 9 33 -125 -109 -213 -169 -454
-313 -64 -38 -65 -40 82 127 59 67 106 122 103 122 -2 0 -37 -18 -78 -39 -99
-54 -368 -167 -368 -156 0 3 135 133 220 212 30 29 53 54 50 56 -3 3 -52 -16
-110 -43 -132 -60 -340 -128 -340 -112 0 10 116 94 325 235 105 71 232 157
283 193 52 36 91 60 87 54 -13 -21 62 1 110 33 40 27 -132 -148 -217 -221 -37
-31 -63 -58 -58 -60 7 -3 202 86 401 183 40 19 74 34 75 32 7 -7 -211 -240
-256 -274 -53 -39 -70 -68 -22 -36 126 82 329 230 394 285 43 38 78 64 78 59
0 -5 -6 -16 -12 -23 -12 -12 -23 -48 -15 -48 2 0 14 20 27 45 13 25 25 43 27
41 6 -6 -54 -123 -103 -198 -24 -38 -42 -68 -40 -68 6 0 286 168 318 191 40
28 46 23 13 -11 -15 -16 -31 -29 -34 -28 -21 2 -36 -6 -74 -40 -82 -75 -191
-153 -220 -159 -16 -3 -24 -9 -17 -13 6 -4 -11 -16 -42 -29 -29 -12 -42 -19
-28 -16 131 30 193 37 275 32 50 -3 100 -8 112 -11 38 -8 111 -43 160 -77 26
-18 42 -26 35 -17 -16 20 -7 33 162 244 151 189 146 184 139 153 -50 -219
-105 -365 -174 -457 l-32 -44 -39 44 c-25 26 -29 29 -12 8 40 -51 72 -131 85
-210 13 -77 4 -163 -32 -300 -33 -124 -67 -303 -62 -317 4 -11 11 -9 29 8 64
60 92 132 129 334 l17 89 81 88 c44 49 82 87 84 85 4 -5 -39 -154 -67 -235
-14 -40 -35 -71 -67 -102 -26 -25 -42 -38 -36 -30 11 14 13 74 3 63 -10 -10
-27 -83 -19 -83 4 0 -1 -16 -12 -35 -12 -19 -19 -35 -17 -35 1 0 26 29 53 65
28 35 67 73 87 85 21 12 43 31 49 43 19 36 71 98 77 93 3 -3 -3 -16 -14 -28
-17 -20 -17 -21 -1 -9 22 18 46 58 27 46 -8 -5 -11 -3 -9 3 6 16 173 221 181
222 14 0 -40 -181 -84 -283 l-29 -67 40 -38 c77 -73 76 -153 -3 -311 -157
-312 -355 -555 -517 -635 -174 -86 -334 -63 -460 64 -58 60 -102 147 -115 230
-4 22 -8 40 -9 40 -1 0 -29 -16 -61 -35 -91 -55 -181 -79 -273 -72 -42 3 -95
13 -119 24 l-42 18 -88 -85 c-48 -47 -118 -107 -155 -135 l-68 -50 63 -12
c137 -28 277 -124 343 -237 76 -129 111 -306 95 -476 -27 -282 -128 -532 -269
-663 -67 -62 -127 -87 -207 -87 -96 0 -173 55 -200 145 -19 66 -11 119 48 310
67 218 88 308 88 388 0 37 -2 67 -5 67 -41 0 -263 -215 -367 -355 -224 -302
-395 -706 -464 -1095 -24 -135 -25 -395 -1 -470 24 -79 45 -101 98 -107 183
-20 613 336 1004 832 l103 130 27 125 c79 368 171 682 261 898 106 252 213
395 334 446 125 51 281 15 363 -87 55 -66 72 -119 71 -217 -1 -106 -26 -190
-184 -605 -16 -44 -30 -83 -30 -86 0 -3 37 13 82 35 79 40 84 41 182 41 89 0
108 -3 158 -27 179 -83 277 -314 278 -648 l0 -85 21 45 c40 86 42 95 40 160
-4 129 46 243 152 350 96 96 244 160 372 160 49 0 152 -19 188 -35 11 -5 17
-3 17 6 0 38 25 94 56 129 44 49 111 77 204 85 237 21 507 53 594 71 l29 6 -7
122 c-8 156 -27 336 -36 336 -3 0 -12 -28 -19 -61 -11 -54 -54 -169 -63 -169
-2 0 -5 33 -6 73 -6 186 -35 397 -88 630 -19 87 -33 161 -30 164 3 4 2 11 -3
17 -12 16 -24 53 -13 41 5 -5 29 -42 54 -80 93 -145 192 -366 223 -497 21 -95
29 -274 14 -328 -6 -25 -14 -85 -16 -135 l-3 -90 21 40 c33 60 69 174 76 237
6 57 26 90 42 72 10 -11 54 -155 48 -160 -5 -5 -47 120 -47 140 0 9 -4 16 -9
16 -5 0 -12 -23 -15 -52 -15 -108 -64 -247 -103 -290 -9 -10 -14 -20 -12 -22
2 -2 58 7 124 20 66 13 172 27 236 30 111 7 118 6 177 -21 72 -32 152 -111
185 -182 18 -40 22 -67 22 -158 0 -101 -3 -116 -31 -180 -44 -103 -139 -249
-318 -493 -178 -243 -357 -495 -353 -498 1 -2 48 12 104 31 56 18 143 42 194
53 l92 18 2 115 c2 100 6 126 35 214 71 209 178 383 339 548 236 243 515 369
745 336 64 -9 69 -8 97 15 75 63 224 75 324 26 74 -36 147 -114 175 -185 35
-93 25 -175 -50 -420 -76 -246 -125 -436 -150 -580 -25 -146 -28 -175 -19
-175 18 0 133 161 224 315 54 92 127 236 175 348 54 125 126 181 231 180 61
-1 107 -20 152 -62 68 -63 73 -125 22 -299 -47 -166 -114 -331 -201 -501 -159
-309 -319 -503 -509 -619 -162 -98 -387 -100 -538 -5 -136 85 -231 263 -244
455 l-6 87 -43 -30 c-56 -38 -160 -87 -201 -95 -27 -5 -33 -11 -33 -32 0 -42
-39 -111 -74 -129 -22 -12 -62 -17 -146 -18 -179 -3 -282 -38 -740 -250 -434
-200 -562 -234 -720 -186 -168 51 -264 228 -227 419 l9 42 -34 -20 c-185 -109
-446 -81 -594 64 l-52 51 -44 -32 c-90 -67 -237 -94 -356 -64 -79 20 -164 81
-211 152 -72 107 -100 231 -107 469 -3 84 -6 155 -8 157 -6 6 -173 -340 -212
-437 -20 -52 -63 -168 -94 -257 -31 -89 -67 -177 -80 -195 -95 -139 -332 -152
-474 -27 -78 69 -114 152 -131 303 l-7 58 -119 -125 c-356 -374 -715 -549
-1045 -508 -175 21 -292 79 -424 211 -171 171 -250 396 -250 714 0 295 61 595
177 876 30 74 56 146 56 160 0 14 -7 81 -16 148 -10 72 -17 189 -17 278 l0
155 -32 -24 c-48 -36 -93 -57 -122 -57 -31 0 -73 49 -82 95 -3 19 -9 35 -12
35 -2 0 -40 -34 -83 -75 -43 -41 -83 -75 -88 -75 -27 0 -102 115 -116 178 -3
17 -8 32 -10 32 -2 0 -27 -11 -57 -25 -29 -14 -63 -25 -74 -25 -55 0 -114 98
-117 196 -2 50 -4 54 -22 49 -11 -3 -42 -8 -70 -11 -90 -11 -129 48 -101 151
18 68 51 131 98 188 22 27 39 49 37 51 -2 1 -23 10 -46 21 -24 10 -43 23 -43
29 0 19 86 111 153 164 35 28 101 74 147 103 92 57 428 239 442 239 19 0 5 17
-32 38 -22 12 -40 26 -40 30 0 13 133 113 315 238 94 65 193 134 221 155 l51
37 6 399 c4 219 7 572 7 785 l0 388 -59 29 c-204 103 -195 352 16 442 85 36
163 40 694 37 504 -3 515 -4 569 -25 115 -47 169 -119 170 -226 0 -92 -42
-158 -139 -217 l-51 -32 0 -300 0 -300 58 32 c109 61 428 279 542 370 162 130
356 308 455 418 47 52 85 97 84 101 0 3 -41 40 -90 81 -162 135 -328 339 -449
552 -343 604 -472 1440 -285 1862 81 183 195 278 375 312 73 14 99 15 180 4
285 -37 639 -240 933 -535 105 -104 231 -257 301 -361 l40 -61 120 126 c326
343 898 903 974 953 33 22 93 23 132 3z m-2812 -323 c-33 -34 -78 -110 -78
-129 0 -4 13 14 29 40 42 72 54 78 21 11 -35 -73 -73 -189 -68 -206 3 -7 11 5
18 27 39 121 136 230 214 240 12 1 43 8 69 15 73 19 178 7 292 -35 54 -19 107
-35 119 -36 27 0 161 -83 161 -100 0 -7 6 -14 14 -17 9 -3 11 0 5 9 -22 36
276 -196 379 -295 91 -87 314 -380 268 -351 -9 5 -9 2 0 -13 7 -12 16 -19 20
-16 4 2 25 -41 48 -95 22 -54 60 -136 83 -182 84 -166 108 -225 129 -319 22
-102 29 -120 29 -73 0 76 -88 317 -176 482 -25 46 -43 85 -41 87 8 8 135 -251
170 -346 19 -52 48 -144 63 -205 27 -102 29 -124 29 -300 0 -227 -12 -288 -87
-443 -40 -85 -62 -117 -121 -176 -79 -79 -174 -135 -273 -161 -76 -20 -248
-20 -325 0 -283 74 -556 306 -774 660 -393 635 -508 1608 -229 1933 20 24 39
40 42 37 3 -3 -10 -22 -30 -43z m-1329 -102 c-14 -62 -6 -120 25 -185 36 -71
87 -121 233 -227 143 -103 200 -165 253 -273 47 -95 64 -188 55 -296 -13 -154
-67 -265 -195 -404 -93 -100 -124 -143 -135 -188 -12 -46 -26 -16 -26 54 0 47
11 99 41 193 64 205 64 317 -1 453 -25 52 -61 96 -178 217 -160 165 -201 227
-222 339 -11 65 0 141 31 215 16 36 118 157 126 149 2 -1 -2 -23 -7 -47z
m-193 -605 c128 -85 196 -184 210 -307 13 -107 -21 -192 -142 -361 -74 -102
-99 -155 -114 -234 -10 -58 -5 -144 12 -175 5 -10 6 -18 2 -18 -17 0 -77 46
-113 86 -56 64 -75 127 -68 226 6 91 34 160 121 291 72 110 96 167 103 247 6
78 -20 166 -73 248 -19 28 -31 52 -28 52 4 0 44 -25 90 -55z m5767 -372 c-23
-2 -64 -2 -90 0 -26 2 -7 3 42 3 50 0 71 -1 48 -3z m-160 -10 c-7 -2 -21 -2
-30 0 -10 3 -4 5 12 5 17 0 24 -2 18 -5z m-78 -13 c-16 -4 -39 -8 -50 -8 -16
0 -15 2 5 8 14 4 36 8 50 8 22 0 22 -1 -5 -8z m-165 -50 c-8 -5 -19 -10 -25
-10 -5 0 -3 5 5 10 8 5 20 10 25 10 6 0 3 -5 -5 -10z m265 0 c31 -7 24 -7 -30
-3 -38 3 -72 7 -74 9 -8 7 64 3 104 -6z m155 -29 c161 -47 252 -99 473 -272
61 -47 168 -195 221 -304 88 -181 126 -331 132 -530 l3 -130 -13 95 c-57 383
-201 700 -407 896 -124 117 -268 197 -433 239 -50 13 -80 24 -66 25 14 0 54
-8 90 -19z m581 -108 c13 -16 12 -17 -3 -4 -10 7 -18 15 -18 17 0 8 8 3 21
-13z m-6036 -70 c-85 -214 -76 -344 35 -491 80 -105 105 -175 90 -247 -13 -62
-46 -109 -117 -164 -32 -25 -56 -54 -64 -76 -15 -41 -25 -44 -35 -12 -12 38
-5 87 17 123 17 28 20 46 17 89 -4 47 -12 63 -66 134 -84 112 -105 171 -100
286 4 81 8 97 42 163 52 98 211 269 181 195z m7193 -30 c-10 -2 -26 -2 -35 0
-10 3 -2 5 17 5 19 0 27 -2 18 -5z m-205 -10 c-7 -2 -19 -2 -25 0 -7 3 -2 5
12 5 14 0 19 -2 13 -5z m-204 -67 c-2 -2 -31 -22 -64 -45 -82 -57 -136 -124
-129 -159 4 -20 -2 -34 -21 -55 -14 -15 -30 -25 -35 -22 -4 3 -13 -9 -19 -27
-14 -41 -14 -48 2 -42 8 3 20 -2 27 -11 12 -15 16 -12 37 22 24 39 30 28 14
-23 -5 -16 -13 -47 -16 -69 -6 -33 -9 -37 -15 -20 -5 11 -9 14 -9 7 -1 -6 -4
-11 -8 -11 -26 4 -33 -5 -34 -38 -1 -21 -6 0 -10 47 -14 132 -2 170 86 288 44
58 164 162 188 162 6 0 8 -2 6 -4z m-648 -33 c13 -16 12 -17 -3 -4 -17 13 -22
21 -14 21 2 0 10 -8 17 -17z m768 -94 c-18 -33 -54 -93 -80 -132 -26 -40 -43
-74 -38 -75 11 -4 2 -22 -11 -22 -26 0 26 146 81 230 69 103 103 102 48 -1z
m-704 1 c9 -16 13 -30 11 -30 -3 0 -12 14 -21 30 -9 17 -13 30 -11 30 3 0 12
-13 21 -30z m-5477 -12 c7 -7 12 -24 12 -38 0 -14 -5 -31 -12 -38 -7 -7 -24
-12 -38 -12 -32 0 -50 17 -50 46 0 44 58 72 88 42z m-313 -21 c14 -22 13 -29
-11 -93 -29 -78 -32 -139 -10 -203 22 -61 21 -153 -3 -200 -22 -42 -80 -97
-118 -112 -35 -13 -38 -11 -20 9 21 23 47 96 47 132 0 16 -21 72 -47 125 -41
85 -47 106 -47 164 -1 55 4 74 27 113 47 80 148 116 182 65z m6348 -22 c-9
-19 -20 -30 -23 -25 -19 31 -70 -45 -52 -77 7 -11 11 -8 21 13 26 59 19 12
-14 -86 -19 -57 -35 -118 -35 -135 0 -17 -7 -40 -16 -51 -15 -19 -15 -19 -10
1 2 11 7 56 11 100 16 181 54 293 96 280 11 -4 19 -2 19 4 0 6 4 11 10 11 5 0
2 -16 -7 -35z m493 14 c-106 -14 -191 -36 -249 -65 -74 -38 -156 -91 -200
-130 -43 -40 -61 -45 -27 -9 13 14 25 32 26 41 1 9 11 25 21 36 21 25 179 102
192 94 4 -3 51 5 102 19 52 13 119 24 149 23 l55 -1 -69 -8z m152 -6 c-10 -2
-26 -2 -35 0 -10 3 -2 5 17 5 19 0 27 -2 18 -5z m105 -23 c29 -11 62 -27 73
-35 15 -13 11 -12 -16 1 -19 10 -60 25 -90 35 -30 10 -47 18 -38 18 10 1 41
-8 71 -19z m-8043 -188 c36 -29 87 -72 114 -94 91 -77 127 -162 111 -265 l-7
-48 -20 40 c-30 58 -44 72 -138 133 -144 92 -182 140 -206 254 -12 56 -13 82
-4 124 l11 53 37 -71 c28 -55 52 -85 102 -126z m8285 148 c10 -11 16 -20 13
-20 -3 0 -13 9 -23 20 -10 11 -16 20 -13 20 3 0 13 -9 23 -20z m-53 -81 l53
-51 -50 41 c-96 78 -102 83 -78 72 12 -6 45 -34 75 -62z m-1394 -16 c0 -66 -7
-65 -22 2 -5 22 -4 26 4 15 7 -12 10 -8 10 18 0 17 2 32 4 32 3 0 4 -30 4 -67z
m-5448 -99 c0 -19 -55 -58 -134 -95 -60 -28 -69 -30 -83 -16 -31 30 17 74 134
122 58 23 83 20 83 -11z m6950 -14 c6 -11 8 -20 6 -20 -3 0 -10 9 -16 20 -6
11 -8 20 -6 20 3 0 10 -9 16 -20z m-3209 -46 c11 -14 10 -18 -5 -29 -33 -24
-62 5 -34 33 16 16 23 15 39 -4z m3299 -155 c0 -33 -3 -58 -7 -56 -8 5 -5 117
3 117 2 0 4 -27 4 -61z m-1366 -71 c-26 -46 -60 -110 -76 -143 -27 -59 -28
-48 -2 45 7 25 13 36 14 25 1 -19 89 141 95 175 6 25 8 26 12 3 3 -13 -14 -53
-43 -105z m-1371 105 c-7 -2 -21 -2 -30 0 -10 3 -4 5 12 5 17 0 24 -2 18 -5z
m-110 -10 c-7 -2 -19 -2 -25 0 -7 3 -2 5 12 5 14 0 19 -2 13 -5z m1454 -25
c-3 -7 -5 -2 -5 12 0 14 2 19 5 13 2 -7 2 -19 0 -25z m-1522 13 c-22 -9 -25
-8 107 -31 37 -7 66 -16 63 -20 -3 -5 7 -11 22 -13 l28 -4 -30 -2 c-73 -3
-286 -52 -360 -81 -109 -44 -164 -62 -143 -48 16 11 16 14 0 40 -9 15 -20 28
-25 28 -4 0 -5 5 -2 10 9 14 -1 12 -35 -5 -17 -9 -30 -13 -30 -10 0 2 31 20
68 39 100 51 270 103 337 104 l20 1 -20 -8z m-5617 -118 c4 -25 -26 -47 -76
-58 -62 -13 -52 43 13 71 40 18 59 14 63 -13z m1523 11 c11 -14 10 -18 -6 -30
-20 -15 -83 -30 -91 -22 -10 11 9 36 39 51 41 20 42 20 58 1z m3664 -50 c-11
-8 -29 -21 -40 -29 -11 -8 -15 -14 -10 -14 21 3 30 -2 18 -9 -8 -5 -7 -14 6
-31 l18 -23 41 21 c67 34 49 18 -44 -39 -47 -29 -127 -91 -177 -139 -84 -79
-88 -82 -55 -35 36 49 42 74 22 94 -15 15 -67 -43 -68 -76 -1 -16 -9 -32 -21
-38 -26 -15 -42 -35 -54 -70 -10 -27 -10 -28 17 -21 15 3 33 13 40 22 10 14
12 14 12 2 0 -9 -22 -24 -50 -36 -33 -14 -50 -17 -50 -10 0 22 81 158 90 152
6 -3 7 0 4 8 -8 22 150 183 235 239 70 45 109 65 66 32z m980 -1 c-25 -15 -27
-18 -11 -21 15 -3 16 -6 5 -12 -30 -19 1 -19 57 0 32 12 86 23 119 25 58 5 57
4 -20 -10 -122 -24 -238 -85 -342 -182 -24 -22 -43 -38 -43 -36 0 9 51 78 58
78 4 0 18 8 32 18 13 9 20 17 16 17 -5 0 -18 -7 -28 -17 -10 -9 -18 -11 -18
-5 0 19 103 118 145 140 47 25 74 29 30 5z m162 11 c-3 -3 -12 -4 -19 -1 -8 3
-5 6 6 6 11 1 17 -2 13 -5z m343 -79 c17 -9 30 -18 30 -21 0 -2 -12 2 -27 9
-16 8 -35 17 -43 20 -10 4 -11 6 -2 6 7 1 26 -6 42 -14z m-265 -55 c-3 -5 -12
-10 -18 -10 -7 0 -6 4 3 10 19 12 23 12 15 0z m1119 -51 c31 -11 58 -24 61
-29 3 -5 -10 -3 -30 6 -20 8 -59 21 -88 29 -36 9 -44 14 -25 14 15 1 52 -8 82
-20z m-1234 -15 c-8 -8 -23 -20 -34 -25 -13 -7 -9 -1 9 15 34 29 43 33 25 10z
m270 -19 c-13 -14 -28 -25 -34 -25 -11 1 40 50 51 50 4 0 -4 -11 -17 -25z
m1301 9 c111 -37 193 -210 173 -367 -9 -73 -23 -94 -24 -36 0 113 -71 253
-176 348 -36 33 -46 45 -24 31 l35 -23 -29 31 c-34 36 -26 39 45 16z m-8143
-15 c4 -19 -27 -34 -41 -20 -14 14 0 43 20 39 10 -2 19 -10 21 -19z m6592 8
c0 -2 -12 -14 -27 -28 l-28 -24 24 28 c23 25 31 32 31 24z m1360 -22 c13 -14
21 -25 18 -25 -2 0 -15 11 -28 25 -13 14 -21 25 -18 25 2 0 15 -11 28 -25z
m343 -17 c80 -42 81 -43 72 -28 -24 38 156 -85 231 -158 44 -43 126 -172 109
-172 -3 0 -31 39 -61 86 -31 47 -58 83 -61 80 -2 -2 0 -13 6 -24 14 -26 14
-35 0 -26 -6 3 -3 -5 6 -20 21 -32 30 -34 15 -3 -11 21 -10 21 4 3 9 -10 13
-23 10 -27 -2 -4 13 -48 35 -96 21 -48 45 -105 52 -126 8 -23 16 -32 20 -25 6
13 -4 115 -15 153 -4 11 1 4 11 -15 18 -38 24 -154 10 -205 -8 -28 -10 -26
-27 40 -65 251 -215 447 -422 551 -60 30 -80 44 -63 44 3 0 34 -15 68 -32z
m-1521 -11 c-25 -27 -30 -46 -6 -26 10 8 8 0 -6 -24 -23 -39 -39 -52 -20 -16
17 30 7 32 -26 7 -16 -12 -7 2 21 30 27 29 51 52 54 52 2 0 -5 -10 -17 -23z
m1169 6 c13 -16 12 -17 -3 -4 -17 13 -22 21 -14 21 2 0 10 -8 17 -17z m-549
-26 c7 -7 27 -23 45 -35 27 -19 35 -21 58 -10 33 15 52 0 36 -29 -8 -17 -1
-28 51 -79 33 -32 55 -49 49 -37 -14 28 -14 36 2 27 6 -4 1 6 -13 21 l-25 29
30 -21 c17 -12 38 -30 49 -42 17 -19 17 -23 4 -43 -14 -21 -12 -27 30 -98 44
-73 76 -117 53 -73 -16 31 -14 35 9 23 20 -11 20 -9 -4 38 -14 27 -37 63 -52
81 -14 18 -24 34 -21 37 3 3 23 -21 45 -53 118 -174 198 -425 199 -623 1 -41
-1 -61 -4 -45 -3 17 -9 35 -14 41 -5 6 -7 36 -5 68 3 37 1 54 -6 50 -6 -4 -15
0 -20 7 -8 11 -9 10 -5 -3 3 -9 9 -44 13 -77 3 -34 10 -61 14 -61 4 0 6 -12 4
-26 -1 -15 1 -45 6 -68 l8 -41 1 38 c1 52 21 47 21 -5 0 -60 -11 -119 -21
-112 -4 2 -5 12 -2 21 4 11 2 14 -5 9 -13 -8 -16 12 -33 169 -23 227 -108 483
-210 632 -50 73 -135 159 -224 226 -99 74 -102 77 -88 77 6 0 18 -6 25 -13z
m619 -39 c8 -15 8 -18 0 -14 -6 4 -16 16 -22 28 -8 15 -8 18 0 14 6 -4 16 -16
22 -28z m-456 7 c39 -17 21 -18 -25 0 -19 7 -28 14 -20 14 8 0 29 -6 45 -14z
m-1096 -62 c-40 -60 -39 -58 -39 -46 0 11 57 93 66 93 3 0 -9 -21 -27 -47z
m1282 -35 c20 -16 17 -16 -19 3 -24 13 -49 30 -55 38 -14 18 36 -10 74 -41z
m995 20 l29 -33 -32 29 c-31 28 -38 36 -30 36 2 0 16 -15 33 -32z m-8936 -111
c0 -46 -43 -62 -75 -27 -21 23 -14 47 17 59 30 11 58 -4 58 -32z m9031 6 c13
-16 12 -17 -3 -4 -10 7 -18 15 -18 17 0 8 8 3 21 -13z m-5021 -144 c53 -51 29
-35 -39 26 -33 30 -33 30 -27 5 4 -14 -6 -1 -23 29 -17 29 -36 61 -43 70 -6 9
8 -5 33 -30 24 -26 69 -70 99 -100z m5051 104 c13 -16 12 -17 -3 -4 -17 13
-22 21 -14 21 2 0 10 -8 17 -17z m-4925 -20 c-7 -7 -26 7 -26 19 0 6 6 6 15
-2 9 -7 13 -15 11 -17z m-1266 -220 c-83 -109 -163 -214 -178 -233 -15 -19
-20 -30 -12 -24 65 47 267 207 317 250 66 58 91 71 52 27 l-24 -28 27 24 c15
13 25 27 23 32 -3 4 14 24 38 43 47 39 68 47 46 19 -13 -16 -12 -17 3 -4 10 7
16 17 13 21 -4 7 56 60 68 60 6 0 -92 -184 -127 -239 -15 -24 -23 -42 -17 -40
6 2 83 68 171 147 180 161 171 163 110 -28 -32 -98 -41 -137 -27 -119 2 2 42
51 89 109 46 58 96 122 110 142 l25 38 10 -58 c6 -31 21 -91 34 -132 22 -74
23 -75 31 -41 5 18 15 72 22 120 l13 86 28 -55 c39 -76 148 -249 158 -250 5 0
6 4 3 8 -2 4 -12 50 -21 102 -8 52 -18 109 -21 125 -4 20 18 -9 66 -85 40 -63
86 -131 101 -151 33 -42 38 -58 12 -38 -16 13 -17 12 -4 -4 8 -9 16 -15 19
-12 7 7 32 -15 32 -27 0 -6 -8 -4 -17 3 -16 13 -17 12 -4 -3 7 -10 17 -16 21
-13 8 5 46 -35 79 -83 13 -18 25 -31 27 -29 5 4 -26 72 -142 316 -70 145 -85
188 -27 76 20 -38 38 -65 40 -58 2 7 -1 21 -7 32 -25 49 2 14 64 -78 36 -55
78 -115 94 -133 15 -18 34 -42 41 -53 20 -30 -66 64 -100 109 -33 44 -67 60
-47 23 15 -30 288 -306 429 -436 64 -58 142 -137 174 -176 32 -38 45 -58 29
-44 -20 19 -35 25 -49 20 -11 -4 -32 -7 -47 -6 -15 0 -25 -2 -22 -6 18 -30
264 -192 264 -174 0 4 -23 36 -51 72 -28 35 -50 66 -47 68 2 2 24 -22 48 -53
81 -103 100 -131 85 -126 -8 4 -15 10 -15 16 0 5 -4 7 -8 4 -28 -17 -340 215
-424 315 -43 52 -64 60 -31 12 33 -47 37 -60 8 -28 -14 17 -23 23 -19 15 12
-26 36 -50 45 -44 4 2 16 -10 25 -28 9 -18 24 -42 33 -52 14 -17 12 -17 -15 2
-41 28 -182 177 -257 272 -33 41 -58 66 -54 55 35 -113 77 -274 75 -290 -6
-43 -190 213 -284 395 -27 52 -50 97 -51 99 -2 2 -5 2 -8 -1 -3 -3 -1 -18 5
-33 10 -27 60 -295 60 -323 0 -60 -199 269 -216 358 -14 65 -24 36 -25 -67 0
-59 -6 -142 -12 -183 l-12 -75 -32 75 c-33 80 -63 192 -63 240 0 43 -17 45
-25 3 -9 -51 -94 -226 -139 -288 l-36 -50 0 85 c0 47 7 128 14 180 8 52 13 96
12 97 -2 2 -26 -37 -55 -86 -29 -48 -83 -126 -120 -172 -67 -83 -187 -197
-197 -186 -10 10 129 379 156 412 12 14 34 73 23 60 -5 -5 -27 -32 -48 -59
-52 -66 -167 -181 -235 -236 l-55 -44 48 51 c26 29 47 55 47 58 0 30 -105 -52
-153 -119 -18 -25 -18 -29 -4 -23 30 11 19 -1 -38 -43 -56 -41 -76 -51 -55
-25 6 8 20 29 29 47 37 69 106 186 157 266 30 45 51 82 48 82 -3 0 -36 -26
-74 -57 -37 -32 -108 -87 -156 -122 -80 -57 -89 -61 -92 -42 -4 23 -12 26 -27
12 -6 -5 -32 -21 -60 -36 -62 -34 -96 -65 -88 -78 4 -6 0 -8 -10 -4 -10 4 -16
2 -14 -5 1 -6 -26 -23 -61 -39 l-62 -28 128 152 c191 227 223 274 129 188 -85
-77 -311 -222 -397 -253 -79 -30 -240 -64 -240 -52 0 1 28 19 63 40 205 123
473 321 629 465 48 44 92 78 97 74 12 -7 81 52 78 67 -1 5 7 15 17 21 11 7 51
36 89 65 38 28 71 52 73 52 3 0 -63 -89 -146 -197z m1321 135 c8 -15 8 -18 0
-14 -6 4 -16 16 -22 28 -8 15 -8 18 0 14 6 -4 16 -16 22 -28z m-3326 -18 c-29
-12 -174 -12 -155 0 8 5 51 9 95 9 54 0 73 -3 60 -9z m8052 -62 c-3 -8 -6 -5
-6 6 -1 11 2 17 5 13 3 -3 4 -12 1 -19z m-6092 -8 c-3 -5 -20 -19 -38 -31
l-32 -22 29 31 c28 30 55 44 41 22z m-3111 -49 c32 -35 -3 -89 -49 -77 -36 9
-50 41 -30 72 19 29 55 31 79 5z m4666 -36 c13 -14 19 -25 13 -25 -6 0 -18 11
-27 25 -9 14 -15 25 -13 25 2 0 14 -11 27 -25z m4687 -31 c14 -30 22 -58 19
-61 -3 -3 -10 5 -15 18 -5 13 -16 41 -24 62 -25 58 -9 44 20 -19z m-4686 -36
c19 -34 2 -17 -30 30 -25 35 -26 40 -6 17 14 -16 30 -38 36 -47z m-4109 -27
c4 -3 -36 -53 -89 -111 -626 -689 -1028 -1523 -1152 -2390 -95 -663 -44 -1322
150 -1965 122 -402 306 -801 544 -1180 l62 -100 6 -134 6 -134 -36 49 c-782
1085 -1087 2380 -857 3644 155 851 578 1688 1170 2313 l75 79 57 -32 c31 -18
60 -35 64 -39z m5748 49 c24 -24 25 -47 3 -72 -32 -35 -113 -9 -113 37 0 23
37 55 65 55 14 0 34 -9 45 -20z m-5120 -17 c-118 -3 -136 -6 -152 -23 -13 -14
-32 -20 -63 -20 -42 0 -45 2 -43 25 l2 25 196 -2 c165 -2 174 -3 60 -5z m7005
-45 c-10 -26 -33 -61 -57 -84 -23 -21 -36 -30 -28 -19 8 10 25 28 37 40 12 11
24 31 28 45 6 23 4 22 -25 -10 -20 -22 -16 -14 11 22 24 32 44 56 46 54 2 -1
-4 -23 -12 -48z m-3251 -147 c152 -127 263 -199 389 -255 95 -42 192 -76 222
-76 5 0 -36 34 -92 75 -56 41 -105 80 -109 86 -7 12 221 -154 246 -178 13 -13
13 -15 -5 -10 -184 49 -361 127 -481 213 -100 72 -286 229 -339 286 l-40 43
50 -46 c28 -26 99 -88 159 -138z m4465 67 c-5 -10 -11 -18 -12 -18 -1 0 0 21
2 48 4 43 5 45 12 18 5 -17 4 -37 -2 -48z m-4691 -57 c23 -18 40 -36 37 -41
-3 -4 3 -14 13 -21 15 -13 16 -12 3 4 -29 37 9 12 125 -81 279 -225 370 -301
389 -323 l20 -23 -31 22 c-17 11 -37 28 -44 38 -8 9 -41 37 -75 62 -33 25 -89
71 -125 102 -128 110 -271 215 -178 130 l33 -29 -25 -2 c-14 -1 -28 -1 -32 0
-37 6 60 -100 165 -182 118 -91 394 -269 442 -285 6 -2 -3 10 -20 26 -16 16
-41 42 -55 58 -14 16 11 -5 55 -46 44 -41 96 -88 115 -104 l35 -28 -35 24
c-19 14 -71 44 -115 68 -214 116 -491 312 -568 401 -47 55 -167 222 -188 262
-14 24 -18 27 59 -32z m4682 -18 c-11 -17 -11 -17 -6 0 3 10 7 26 7 35 1 15 2
15 6 0 2 -10 -1 -25 -7 -35z m-4349 10 c13 -16 12 -17 -3 -4 -10 7 -18 15 -18
17 0 8 8 3 21 -13z m1569 -22 c0 -26 -17 -36 -35 -21 -18 15 -8 40 16 40 12 0
19 -7 19 -19z m2967 -73 c-2 -13 -4 -3 -4 22 0 25 2 35 4 23 2 -13 2 -33 0
-45z m-102 -39 c5 -42 4 -41 -10 11 -17 65 -17 70 -5 49 5 -9 12 -36 15 -60z
m-8522 34 c-7 -2 -19 -2 -25 0 -7 3 -2 5 12 5 14 0 19 -2 13 -5z m7646 -63 c0
-23 -1 -23 -8 -5 -4 11 -11 34 -15 50 l-6 30 15 -25 c8 -14 14 -36 14 -50z
m-3278 13 c13 -16 12 -17 -3 -4 -10 7 -18 15 -18 17 0 8 8 3 21 -13z m-4801
-16 c0 -2 -10 -12 -22 -23 l-23 -19 19 23 c18 21 26 27 26 19z m2420 -2 c0 -5
-135 -85 -144 -85 -12 0 -5 20 7 20 6 1 37 16 67 35 54 33 70 40 70 30z m5420
-145 c-16 -59 -20 -46 -6 20 6 30 12 47 14 38 2 -9 -2 -35 -8 -58z m-5370 57
c0 -2 -12 -14 -27 -28 l-28 -24 24 28 c23 25 31 32 31 24z m6591 -88 c-7 -44
-9 -47 -10 -19 -1 36 9 84 15 77 3 -2 0 -28 -5 -58z m-5465 -359 c7 -60 27
-151 35 -156 9 -5 3 67 -11 126 -5 19 -14 103 -20 185 -6 83 -12 162 -14 177
-2 27 -2 27 16 11 20 -18 25 -38 6 -27 -7 4 -8 3 -4 -5 4 -6 11 -9 16 -6 5 3
47 -39 93 -92 80 -92 167 -183 167 -173 0 3 -14 48 -30 100 -17 51 -30 100
-30 108 0 7 82 -70 181 -172 100 -102 185 -186 189 -186 5 0 -1 24 -12 53 -11
28 -35 94 -53 145 l-33 93 47 -40 c27 -22 54 -48 62 -57 16 -20 281 -252 312
-273 22 -15 22 -15 6 9 -37 57 -130 223 -126 226 7 8 106 -88 101 -99 -2 -7 6
-18 18 -26 23 -14 23 -14 4 8 -11 11 -15 21 -9 21 5 0 59 -47 119 -104 108
-102 239 -252 319 -364 l40 -57 -50 29 c-87 50 -248 159 -287 194 -48 43 -48
36 0 -28 20 -27 47 -68 60 -90 21 -38 11 -32 -125 78 -81 66 -179 150 -216
187 l-69 68 38 -74 c45 -91 154 -339 148 -339 -3 0 -58 40 -122 89 -120 92
-251 213 -335 311 l-47 55 25 -57 c22 -51 105 -289 126 -361 l8 -27 -26 20
c-97 76 -299 333 -367 468 -14 29 -27 52 -29 52 -1 0 -2 -82 -2 -183 0 -113
-4 -189 -11 -200 -10 -17 -16 -12 -61 45 -62 79 -155 236 -179 305 -18 51 -34
61 -34 22 0 -33 -66 -167 -132 -267 -33 -51 -62 -91 -63 -90 -6 7 26 273 39
328 16 67 7 81 -13 23 -24 -66 -90 -171 -165 -261 -92 -110 -126 -142 -126
-119 0 30 40 221 65 312 13 49 23 91 21 93 -2 2 -16 -13 -31 -33 -15 -19 -30
-33 -33 -31 -2 3 9 21 25 39 28 32 53 70 167 251 l44 69 -5 -69 c-5 -75 -18
-174 -29 -214 -27 -99 104 182 141 303 l26 88 116 -193 c64 -106 117 -204 119
-218z m-1626 396 c0 -3 -15 -14 -32 -26 l-33 -22 30 26 c31 27 35 29 35 22z
m7027 -63 c-3 -10 -5 -2 -5 17 0 19 2 27 5 18 2 -10 2 -26 0 -35z m-4582 17
c10 -11 16 -20 13 -20 -3 0 -13 9 -23 20 -10 11 -16 20 -13 20 3 0 13 -9 23
-20z m-3965 -20 c0 -5 -2 -10 -4 -10 -3 0 -8 5 -11 10 -3 6 -1 10 4 10 6 0 11
-4 11 -10z m7381 -33 c-10 -9 -11 -8 -5 6 3 10 9 15 12 12 3 -3 0 -11 -7 -18z
m46 -139 c-2 -29 -3 -8 -3 47 0 55 1 79 3 53 2 -26 2 -71 0 -100z m-4973 95
c-67 -164 -116 -265 -150 -312 -2 -2 -15 6 -31 16 -15 11 -49 28 -76 38 -38
14 -45 20 -36 31 6 8 68 60 138 116 69 56 134 112 144 125 26 32 28 29 11 -14z
m-194 3 c-17 -46 -110 -225 -119 -230 -14 -9 -91 5 -91 15 0 7 208 234 217
238 1 1 -2 -10 -7 -23z m5073 -31 c-22 -29 -27 -26 -12 8 7 15 16 24 20 21 5
-3 1 -16 -8 -29z m-5242 -48 c-10 -9 -11 -8 -5 6 3 10 9 15 12 12 3 -3 0 -11
-7 -18z m6469 -38 c0 8 2 12 5 9 3 -2 -4 -29 -14 -59 -15 -40 -20 -47 -20 -28
-2 46 11 92 20 77 7 -11 9 -10 9 1z m-973 -41 c-3 -8 -6 -5 -6 6 -1 11 2 17 5
13 3 -3 4 -12 1 -19z m-9082 -28 c0 -28 -27 -39 -50 -20 -21 18 -1 52 28 48
16 -2 22 -10 22 -28z m8912 -7 c-3 -10 -5 -4 -5 12 0 17 2 24 5 18 2 -7 2 -21
0 -30z m-7427 -30 c0 -14 -3 -23 -7 -19 -10 10 -11 46 -1 46 4 0 8 -12 8 -27z
m7855 -26 c-5 -16 -4 -18 3 -8 7 9 27 -19 76 -108 500 -908 668 -1960 480
-3001 -94 -523 -292 -1069 -554 -1529 -88 -154 -219 -361 -228 -361 -4 1 -23
34 -43 75 l-36 73 54 84 c78 121 182 313 261 478 326 684 491 1440 468 2135
-6 170 -26 418 -42 514 -86 520 -211 907 -436 1349 l-67 133 24 77 c14 42 25
87 25 100 0 14 4 20 10 17 6 -4 8 -16 5 -28z m-438 -9 c-3 -7 -5 -2 -5 12 0
14 2 19 5 13 2 -7 2 -19 0 -25z m-2313 -88 c21 0 100 -40 93 -47 -3 -2 -15 1
-27 7 -12 6 -24 9 -27 6 -3 -3 7 -10 22 -16 15 -6 32 -13 38 -17 6 -3 7 -1 3
5 -4 7 -5 12 -2 12 13 0 366 -199 366 -206 0 -2 -31 12 -70 31 -38 19 -70 33
-70 30 0 -2 18 -14 41 -25 50 -26 109 -80 86 -80 -63 0 -336 157 -487 280 -30
25 -69 55 -85 68 -19 15 -5 10 36 -12 36 -20 74 -36 83 -36z m2303 38 c-3 -7
-5 -2 -5 12 0 14 2 19 5 13 2 -7 2 -19 0 -25z m-3002 -122 c44 -26 105 -66
135 -89 89 -66 244 -204 269 -239 17 -23 8 -17 -31 20 -37 35 -60 51 -70 47
-11 -4 -21 1 -29 17 -7 13 -10 25 -8 28 10 10 -142 125 -255 192 -66 39 -130
79 -140 88 -38 31 -9 -10 51 -73 96 -99 121 -119 142 -107 27 14 60 8 67 -12
3 -10 10 -18 16 -18 6 0 8 -11 6 -25 -4 -20 1 -29 28 -46 38 -23 46 -36 12
-18 -93 49 -200 134 -287 226 -53 57 -97 108 -99 113 -4 10 46 -17 193 -104z
m2992 62 c-3 -7 -5 -2 -5 12 0 14 2 19 5 13 2 -7 2 -19 0 -25z m122 -26 c-6
-18 -15 -32 -21 -32 -5 0 -8 3 -6 8 34 69 47 81 27 24z m-139 -52 c-7 -28 -14
-49 -16 -47 -3 2 1 27 8 55 6 29 13 50 16 47 2 -2 -1 -27 -8 -55z m-2455 -3
c16 -15 -48 20 -70 38 -11 9 -2 7 20 -6 22 -12 45 -26 50 -32z m-314 26 c13
-16 12 -17 -3 -4 -10 7 -18 15 -18 17 0 8 8 3 21 -13z m65 -44 c3 -6 -5 -3
-20 6 -14 10 -26 19 -26 22 0 7 39 -17 46 -28z m194 6 c13 -14 21 -25 18 -25
-2 0 -15 11 -28 25 -13 14 -21 25 -18 25 2 0 15 -11 28 -25z m-4883 -27 c-3
-8 -6 -5 -6 6 -1 11 2 17 5 13 3 -3 4 -12 1 -19z m4833 -74 c0 -7 -78 39 -108
64 -15 12 3 4 41 -19 37 -23 67 -43 67 -45z m1809 54 c14 -24 14 -28 -3 -47
-23 -25 -53 -27 -78 -4 -23 20 -23 41 -1 65 24 26 64 19 82 -14z m-1599 -4 c0
-2 -9 0 -20 6 -11 6 -20 13 -20 16 0 2 9 0 20 -6 11 -6 20 -13 20 -16z m229
-46 c65 -38 361 -264 406 -310 19 -18 18 -18 -17 2 -20 11 -42 28 -48 35 -7 8
-16 12 -21 10 -4 -3 -28 4 -51 16 -63 31 -288 161 -288 165 0 3 14 -3 31 -11
48 -25 46 -10 -3 17 -24 13 -41 26 -38 30 3 3 -2 14 -10 24 -20 25 -41 64 -35
64 3 0 36 -19 74 -42z m-4166 0 c-99 -112 -228 -211 -387 -297 -46 -25 -57
-28 -52 -14 4 9 12 50 18 91 l12 75 51 23 c28 12 89 36 136 52 46 17 120 46
164 65 44 19 82 35 84 36 1 1 -10 -14 -26 -31z m3937 -55 l75 -78 -77 75 c-72
69 -83 80 -75 80 1 0 36 -35 77 -77z m181 -6 c13 -10 -3 -3 -37 15 -33 18 -72
41 -85 51 -13 9 3 2 37 -15 33 -18 71 -41 85 -51z m-6854 47 c3 -8 -2 -23 -11
-32 -15 -15 -17 -15 -32 0 -21 21 -11 48 16 48 11 0 23 -7 27 -16z m6513 -20
c0 -2 -9 0 -20 6 -11 6 -20 13 -20 16 0 2 9 0 20 -6 11 -6 20 -13 20 -16z
m2481 -9 c5 3 6 -1 3 -9 -3 -9 -10 -13 -15 -10 -5 3 -6 -2 -3 -10 3 -9 2 -16
-4 -16 -5 0 -15 -14 -22 -30 -22 -54 -21 -26 2 41 12 36 24 56 26 46 2 -9 8
-15 13 -12z m-2431 -21 c0 -2 -9 0 -20 6 -11 6 -20 13 -20 16 0 2 9 0 20 -6
11 -6 20 -13 20 -16z m2490 6 c-6 -11 -13 -20 -16 -20 -2 0 0 9 6 20 6 11 13
20 16 20 2 0 0 -9 -6 -20z m-1770 -26 c0 -2 -9 0 -20 6 -11 6 -20 13 -20 16 0
2 9 0 20 -6 11 -6 20 -13 20 -16z m-670 -10 c0 -2 -9 0 -20 6 -11 6 -20 13
-20 16 0 2 9 0 20 -6 11 -6 20 -13 20 -16z m135 -74 c4 -6 -19 3 -52 21 -80
45 -91 58 -16 20 34 -17 65 -35 68 -41z m605 44 c0 -2 -9 0 -20 6 -11 6 -20
13 -20 16 0 2 9 0 20 -6 11 -6 20 -13 20 -16z m-997 -17 c6 3 7 1 3 -5 -4 -6
6 -18 24 -27 16 -8 30 -18 30 -20 0 -3 -31 11 -70 30 -74 37 -95 56 -34 30 20
-8 41 -12 47 -8z m427 -37 c30 -43 18 -37 -16 7 -15 20 -23 33 -16 29 6 -3 21
-20 32 -36z m-1015 -225 c66 -52 140 -112 164 -134 25 -22 46 -39 48 -37 7 6
-18 59 -47 103 -17 24 -30 46 -30 49 0 3 17 -8 39 -25 21 -17 40 -28 43 -26 2
3 15 -7 29 -23 l24 -27 -26 20 c-14 11 7 -11 47 -50 40 -38 85 -85 99 -104 14
-19 25 -30 25 -24 0 6 -12 25 -26 42 -14 17 -27 37 -28 43 -1 7 -5 19 -9 26
-10 15 5 16 21 0 7 -7 12 -9 12 -6 0 3 -60 59 -132 124 -73 66 -152 136 -175
158 -61 55 -53 32 10 -28 28 -28 48 -48 43 -43 -16 12 -21 8 -22 -18 -1 -14 1
-23 5 -21 3 2 6 -6 6 -17 1 -12 4 -33 8 -47 7 -25 -79 147 -115 230 l-19 45
28 -30 c42 -44 303 -279 418 -374 119 -100 126 -106 103 -98 -25 9 -22 0 3
-14 15 -8 19 -8 15 0 -4 6 -3 11 3 11 5 0 13 -4 16 -10 3 -5 15 -15 26 -21 18
-9 19 -8 11 8 -5 10 -7 23 -5 30 2 6 0 14 -6 17 -6 4 -8 13 -4 22 3 9 0 14 -7
12 -7 -2 -20 20 -30 52 -24 71 -24 97 0 43 10 -23 28 -47 40 -53 15 -8 20 -8
16 -1 -4 6 0 11 10 11 12 0 7 10 -20 40 -72 80 -33 48 95 -77 121 -119 292
-312 332 -375 33 -52 10 -28 -71 75 -44 56 -106 127 -138 157 -32 30 -52 47
-44 37 8 -11 10 -21 4 -25 -41 -30 -38 -85 9 -184 35 -73 82 -218 70 -218 -16
0 -307 308 -380 402 -47 61 -47 81 0 26 15 -18 25 -26 22 -17 -3 8 -2 27 4 40
8 23 3 30 -58 79 -36 29 -54 40 -40 24 22 -24 25 -33 17 -51 -8 -17 -4 -33 19
-80 57 -113 81 -189 117 -363 9 -41 16 -77 16 -79 0 -2 -9 4 -20 14 -12 10
-18 25 -16 32 3 7 0 12 -6 10 -13 -2 -146 177 -185 250 -31 58 -49 62 -29 5
14 -39 34 -149 41 -219 l4 -43 -23 28 c-44 51 -134 197 -209 337 -113 210
-121 225 -131 225 -4 0 -5 -8 -2 -17 13 -32 29 -220 22 -248 l-7 -28 -13 24
c-7 13 -56 105 -108 204 -99 187 -135 253 -200 368 -21 38 -38 70 -38 73 0 7
221 -151 335 -241z m3138 168 c-6 -16 -5 -16 10 -4 30 24 18 6 -19 -30 l-36
-34 21 43 c21 42 36 58 24 25z m-2573 -29 c0 -3 -4 -2 -10 1 -14 9 -13 -8 2
-23 7 -7 9 -12 6 -12 -3 0 -18 16 -33 36 l-27 36 31 -16 c17 -9 31 -19 31 -22z
m-200 -81 c0 -2 -4 -1 -10 2 -5 3 -10 3 -10 0 0 -9 38 -57 42 -54 2 1 14 -3
26 -10 17 -9 22 -19 18 -33 -3 -15 9 -39 42 -82 25 -34 39 -55 29 -47 -18 14
-89 107 -173 226 l-49 70 43 -34 c23 -19 42 -36 42 -38z m225 17 c10 -11 16
-20 13 -20 -3 0 -13 9 -23 20 -10 11 -16 20 -13 20 3 0 13 -9 23 -20z m-45
-141 c14 -11 18 -17 10 -13 -23 11 -180 126 -180 131 0 5 133 -87 170 -118z
m85 91 c10 -11 16 -20 13 -20 -3 0 -13 9 -23 20 -10 11 -16 20 -13 20 3 0 13
-9 23 -20z m-1189 -192 c49 -51 111 -121 137 -154 49 -66 147 -222 147 -236 0
-4 -110 -8 -245 -8 l-245 0 0 296 0 296 58 -50 c31 -28 98 -92 148 -144z
m1229 142 c10 -11 16 -20 13 -20 -3 0 -13 9 -23 20 -10 11 -16 20 -13 20 3 0
13 -9 23 -20z m470 -15 l20 -16 -20 10 c-11 5 -29 17 -40 26 l-20 16 20 -10
c11 -5 29 -17 40 -26z m-4246 -22 c-48 -79 -140 -211 -161 -229 -16 -14 -15
-10 6 19 27 35 27 37 8 37 -23 0 -54 37 -45 54 4 8 2 8 -5 1 -10 -9 -19 -40
-21 -71 -1 -7 -12 -11 -25 -10 -21 1 -22 3 -10 21 24 34 15 37 -28 7 -52 -35
-77 -49 -63 -35 20 19 152 110 230 158 44 27 91 57 104 67 34 26 36 23 10 -19z
m2211 -238 l0 -265 -159 0 -160 0 59 124 c32 69 78 155 101 193 45 71 148 213
155 213 2 0 4 -119 4 -265z m1696 120 c24 -32 44 -64 44 -70 0 -7 9 -20 20
-30 11 -10 18 -20 15 -23 -6 -7 -44 40 -45 55 0 7 -34 54 -77 105 -42 52 -59
77 -38 58 20 -19 57 -62 81 -95z m914 9 c0 -3 -13 4 -30 16 -16 12 -30 24 -30
26 0 3 14 -4 30 -16 17 -12 30 -24 30 -26z m-5980 12 c0 -2 -43 -32 -95 -67
-52 -34 -95 -63 -95 -65 0 -2 19 6 43 16 23 11 49 20 58 20 9 0 29 10 45 22
29 23 29 23 -4 -19 -18 -23 -63 -69 -99 -103 -36 -33 -62 -60 -56 -60 5 0 13
4 19 9 5 5 62 36 127 70 116 60 117 61 113 34 -11 -58 -136 -152 -305 -228
-56 -26 -105 -44 -108 -41 -3 2 15 14 40 26 44 21 168 121 176 142 2 7 -2 8
-10 3 -39 -23 -218 -151 -244 -175 -16 -15 -52 -42 -80 -60 -50 -34 -156 -124
-225 -191 -20 -20 -61 -49 -91 -64 -115 -57 -313 -144 -317 -140 -7 6 195 205
208 205 6 0 8 -5 4 -12 -4 -7 -3 -8 5 -4 6 4 9 11 6 16 -7 12 111 88 224 144
51 26 91 49 89 52 -3 2 -33 -5 -67 -16 -62 -19 -173 -43 -261 -55 l-45 -6 45
28 c57 36 206 120 385 215 151 81 331 188 441 262 70 47 74 49 74 42z m4865
-6 c3 -5 1 -10 -4 -10 -6 0 -11 5 -11 10 0 6 2 10 4 10 3 0 8 -4 11 -10z m555
-37 c0 -7 -39 17 -46 28 -3 6 5 3 20 -6 14 -10 26 -19 26 -22z m-590 -33 c24
-28 40 -53 38 -56 -3 -2 -24 20 -47 51 -52 69 -47 72 9 5z m565 10 c10 -11 16
-20 13 -20 -3 0 -13 9 -23 20 -10 11 -16 20 -13 20 3 0 13 -9 23 -20z m995
-16 c0 -2 -13 2 -30 11 -16 9 -30 18 -30 21 0 2 14 -2 30 -11 17 -9 30 -18 30
-21z m-940 -39 c13 -14 21 -25 18 -25 -2 0 -15 11 -28 25 -13 14 -21 25 -18
25 2 0 15 -11 28 -25z m-4650 1 c0 -2 -8 -10 -17 -17 -16 -13 -17 -12 -4 4 13
16 21 21 21 13z m130 -21 c-7 -8 -17 -15 -22 -15 -6 0 -5 7 2 15 7 8 17 15 22
15 6 0 5 -7 -2 -15z m4181 -2 c13 -16 12 -17 -3 -4 -10 7 -18 15 -18 17 0 8 8
3 21 -13z m535 -21 c-5 -4 -66 26 -66 33 0 3 16 -3 35 -12 19 -9 33 -18 31
-21z m879 20 c-3 -3 -11 0 -18 7 -9 10 -8 11 6 5 10 -3 15 -9 12 -12z m-295
-18 c0 -2 -9 0 -20 6 -11 6 -20 13 -20 16 0 2 9 0 20 -6 11 -6 20 -13 20 -16z
m360 -4 c8 -5 11 -10 5 -10 -5 0 -17 5 -25 10 -8 5 -10 10 -5 10 6 0 17 -5 25
-10z m-1070 -35 c19 -19 32 -35 29 -35 -3 0 -20 16 -39 35 -19 19 -32 35 -29
35 3 0 20 -16 39 -35z m-185 -98 c15 -15 -11 0 -92 55 -39 26 -74 52 -78 58
-6 10 152 -95 170 -113z m1735 103 c8 -5 11 -10 5 -10 -5 0 -17 5 -25 10 -8 5
-10 10 -5 10 6 0 17 -5 25 -10z m-6140 -23 c0 -2 -10 -12 -22 -23 l-23 -19 19
23 c18 21 26 27 26 19z m5055 -91 c6 -5 -1 -2 -15 5 -14 7 -29 12 -35 10 -5
-1 -7 1 -2 5 4 4 -3 19 -15 33 -14 16 -7 12 17 -9 22 -19 45 -39 50 -44z m216
57 c13 -16 12 -17 -3 -4 -10 7 -18 15 -18 17 0 8 8 3 21 -13z m-626 -13 c10
-11 16 -20 13 -20 -3 0 -13 9 -23 20 -10 11 -16 20 -13 20 3 0 13 -9 23 -20z
m676 -27 c13 -16 12 -17 -3 -4 -10 7 -18 15 -18 17 0 8 8 3 21 -13z m-1085
-110 c4 4 2 7 -4 7 -7 0 -12 4 -12 10 0 15 24 2 38 -21 8 -12 9 -18 3 -14 -26
15 -7 -10 37 -52 44 -42 45 -43 7 -15 -63 47 -174 152 -186 176 -6 11 16 -6
50 -38 33 -33 64 -57 67 -53z m445 90 c13 -16 12 -17 -3 -4 -10 7 -18 15 -18
17 0 8 8 3 21 -13z m-201 -29 c0 -2 -13 2 -30 11 -16 9 -30 18 -30 21 0 2 14
-2 30 -11 17 -9 30 -18 30 -21z m70 -40 c0 -2 -9 0 -20 6 -11 6 -20 13 -20 16
0 2 9 0 20 -6 11 -6 20 -13 20 -16z m-5496 -31 c-48 -84 -97 -167 -131 -218
-44 -66 -42 -85 5 -40 20 20 63 59 95 87 l57 51 0 -67 0 -67 -76 -112 c-88
-129 -104 -148 -115 -142 -4 3 -11 0 -15 -6 -4 -8 -3 -9 4 -5 22 14 12 -7 -45
-88 l-57 -81 70 59 69 58 -70 -67 c-112 -107 -165 -149 -165 -131 0 25 46 141
87 219 21 40 73 121 116 181 105 147 109 157 29 78 -38 -37 -111 -103 -163
-146 -144 -120 -136 -115 -110 -81 52 68 153 217 149 220 -9 9 -210 -190 -258
-254 -27 -37 -63 -77 -80 -89 -16 -13 -30 -28 -30 -34 0 -6 9 -3 20 7 11 10
20 16 20 14 0 -3 -19 -23 -42 -44 -30 -28 -35 -31 -18 -10 l25 30 -27 -24
c-15 -13 -24 -29 -22 -36 3 -7 1 -16 -5 -20 -17 -10 -13 83 5 146 18 61 49
125 89 184 l27 40 -49 -46 c-53 -50 -105 -93 -236 -193 -82 -63 -87 -66 -81
-39 28 114 88 214 191 314 74 73 266 209 380 271 40 22 75 44 79 49 3 5 10 9
15 9 6 0 -27 -44 -73 -97 -132 -155 -171 -203 -160 -203 5 0 17 9 27 20 21 23
220 164 372 263 56 36 104 71 108 77 3 5 8 10 11 10 3 0 -7 -21 -22 -47z
m6557 -86 c62 -62 95 -98 73 -80 -39 32 -233 228 -202 204 9 -7 67 -63 129
-124z m319 52 c68 -36 71 -40 20 -22 -8 3 -1 -7 16 -23 16 -16 23 -24 15 -18
-26 18 -132 104 -129 104 2 0 37 -18 78 -41z m-1241 -5 c14 -12 -19 -1 -35 12
-18 14 -18 14 6 3 14 -6 27 -13 29 -15z m91 -14 c11 -22 18 -40 15 -40 -2 0
-14 18 -25 40 -11 22 -18 40 -15 40 2 0 14 -18 25 -40z m1270 -35 c17 -9 30
-18 30 -21 0 -4 -59 23 -69 32 -10 9 13 3 39 -11z m-1605 -57 c14 -29 19 -44
10 -34 -8 11 -15 16 -15 12 0 -4 -20 7 -45 24 -25 17 -45 33 -45 36 0 3 20 -9
45 -26 49 -34 52 -33 30 10 -9 17 -13 30 -10 30 2 0 16 -24 30 -52z m-2005
-203 l0 -235 -305 0 c-262 0 -305 2 -305 15 0 8 10 58 21 112 20 87 27 103 68
153 26 31 68 87 93 125 l46 70 191 -3 191 -3 0 -234z m709 142 c41 -126 91
-328 91 -368 0 -5 -146 -9 -335 -9 l-335 0 0 235 0 235 268 2 c147 2 270 2
274 0 3 -1 20 -44 37 -95z m1426 83 c3 -6 -1 -7 -9 -4 -18 7 -21 14 -7 14 6 0
13 -4 16 -10z m1572 -18 c53 -32 212 -139 228 -155 20 -19 -33 13 -158 97
-131 87 -158 109 -70 58z m-12 -37 c95 -53 93 -60 -3 -10 -77 39 -101 55 -87
55 6 0 46 -20 90 -45z m-705 -103 c10 -11 -26 12 -85 53 -33 24 -69 53 -80 65
-11 13 21 -8 70 -45 50 -37 92 -70 95 -73z m106 -19 c33 -40 38 -49 15 -28
-32 30 -77 85 -68 85 3 0 26 -26 53 -57z m304 31 c0 -2 -9 0 -20 6 -11 6 -20
13 -20 16 0 2 9 0 20 -6 11 -6 20 -13 20 -16z m-4920 -24 c-6 -11 -13 -20 -16
-20 -2 0 0 9 6 20 6 11 13 20 16 20 2 0 0 -9 -6 -20z m4460 -15 c19 -19 32
-35 29 -35 -3 0 -20 16 -39 35 -19 19 -32 35 -29 35 3 0 20 -16 39 -35z m563
-23 c20 -14 37 -27 37 -29 0 -3 -12 3 -27 13 -83 53 -103 67 -103 71 0 5 11
-1 93 -55z m-392 -24 c48 -32 93 -65 100 -74 13 -16 -187 119 -206 138 -15 17
9 2 106 -64z m-1711 -94 c75 -161 112 -343 110 -524 -1 -58 1 -125 4 -150 5
-39 4 -37 -14 20 -21 72 -25 92 -10 70 23 -35 2 263 -26 375 -20 79 -81 231
-110 275 l-24 35 -1 -130 c0 -72 -4 -139 -9 -150 -5 -12 -9 50 -9 160 l-1 180
26 -38 c14 -21 43 -76 64 -123z m160 79 c41 -43 51 -56 23 -28 -57 53 -68 54
-29 2 39 -51 93 -177 116 -268 12 -46 30 -113 41 -148 21 -69 25 -121 9 -121
-5 0 -10 5 -10 12 0 6 -3 9 -6 6 -6 -7 62 -177 77 -193 5 -5 9 16 10 55 0 36
5 74 10 85 6 13 7 -10 3 -65 -3 -47 -9 -91 -13 -98 -9 -16 -74 123 -120 251
-33 96 -75 182 -92 193 -7 4 -9 0 -6 -12 10 -33 29 -176 24 -180 -2 -3 -10 30
-16 73 -12 77 -87 461 -97 496 -3 9 -4 17 -2 17 2 0 37 -35 78 -77z m165 37
c21 -22 37 -40 34 -40 -3 0 -23 18 -44 40 -21 22 -37 40 -34 40 3 0 23 -18 44
-40z m225 15 c13 -14 21 -25 18 -25 -2 0 -15 11 -28 25 -13 14 -21 25 -18 25
2 0 15 -11 28 -25z m-3510 -35 c-12 -16 -24 -30 -26 -30 -3 0 4 14 16 30 12
17 24 30 26 30 3 0 -4 -13 -16 -30z m-202 -15 c-6 -14 -13 -23 -15 -21 -5 5
15 46 22 46 3 0 -1 -11 -7 -25z m3763 8 c13 -16 12 -17 -3 -4 -10 7 -18 15
-18 17 0 8 8 3 21 -13z m749 -60 c0 -7 -58 29 -88 55 -15 13 -1 6 31 -14 31
-20 57 -39 57 -41z m-853 45 c-3 -8 -6 -5 -6 6 -1 11 2 17 5 13 3 -3 4 -12 1
-19z m728 -8 c10 -11 16 -20 13 -20 -3 0 -13 9 -23 20 -10 11 -16 20 -13 20 3
0 13 -9 23 -20z m965 -6 c0 -2 -9 0 -20 6 -11 6 -20 13 -20 16 0 2 9 0 20 -6
11 -6 20 -13 20 -16z m-4920 -29 c13 -14 21 -25 18 -25 -2 0 -15 11 -28 25
-13 14 -21 25 -18 25 2 0 15 -11 28 -25z m3450 -42 c0 -7 -56 35 -71 54 -8 9
5 2 29 -17 23 -18 42 -35 42 -37z m-5416 22 c17 -30 17 -30 -2 -8 -15 17 -22
19 -32 10 -9 -9 -9 -6 1 10 7 12 14 21 14 20 1 -1 9 -15 19 -32z m1696 32 c0
-1 -24 -25 -52 -52 l-53 -50 50 53 c46 48 55 57 55 49z m4065 -100 c6 -5 -10
4 -35 20 -25 17 -56 43 -70 58 -22 24 78 -50 105 -78z m350 48 l20 -16 -20 10
c-11 5 -29 17 -40 26 l-20 16 20 -10 c11 -5 29 -17 40 -26z m-946 -58 c12 -23
16 -34 9 -23 -7 10 -28 39 -47 65 -26 35 -28 41 -10 23 14 -12 35 -41 48 -65z
m-5269 60 c0 -2 -19 -21 -42 -42 l-43 -40 40 43 c36 39 45 47 45 39z m26 -89
c-32 -82 -52 -159 -48 -185 2 -6 -3 -15 -9 -19 -23 -14 24 171 66 258 31 64
26 36 -9 -54z m6254 46 c0 -2 -9 0 -20 6 -11 6 -20 13 -20 16 0 2 9 0 20 -6
11 -6 20 -13 20 -16z m-6118 -38 c-121 -138 -166 -185 -170 -181 -3 3 19 28
48 57 76 77 123 136 115 147 -4 7 0 8 10 5 14 -6 14 -9 -3 -28z m1528 31 c0
-2 -10 -12 -22 -23 l-23 -19 19 23 c18 21 26 27 26 19z m3715 -27 c10 -11 16
-20 13 -20 -3 0 -13 9 -23 20 -10 11 -16 20 -13 20 3 0 13 -9 23 -20z m496 3
c13 -16 12 -17 -3 -4 -10 7 -18 15 -18 17 0 8 8 3 21 -13z m-4265 -22 c-13
-20 -75 -50 -82 -39 -4 6 -3 9 2 6 5 -3 25 5 44 18 40 26 43 28 36 15z m4025
-235 c5 13 8 15 8 4 1 -8 4 -25 7 -37 6 -21 -154 137 -216 212 -13 17 25 -21
85 -84 92 -96 110 -110 116 -95z m19 169 c19 -19 32 -35 29 -35 -3 0 -20 16
-39 35 -19 19 -32 35 -29 35 3 0 20 -16 39 -35z m380 -22 c0 -7 -61 31 -73 46
-7 8 7 2 31 -14 23 -15 42 -30 42 -32z m-2660 -168 l0 -145 -326 0 -327 0 6
58 c4 31 9 94 13 139 l7 83 311 3 c171 1 312 3 314 5 1 1 2 -63 2 -143z m822
98 c3 -21 10 -84 14 -140 l7 -103 -357 0 -356 0 0 143 0 142 342 -2 343 -2 7
-38z m1918 21 c0 -2 -9 0 -20 6 -11 6 -20 13 -20 16 0 2 9 0 20 -6 11 -6 20
-13 20 -16z m-335 -54 c21 -22 37 -40 34 -40 -3 0 -23 18 -44 40 -21 22 -37
40 -34 40 3 0 23 -18 44 -40z m94 -15 c0 -5 -6 1 -14 15 -8 14 -14 30 -14 35
0 6 6 -1 14 -15 8 -14 14 -29 14 -35z m-595 -100 c53 -80 101 -143 106 -140 6
3 10 -4 10 -17 l0 -23 -20 25 c-18 22 -174 254 -194 288 -4 6 -5 12 -2 12 2 0
48 -65 100 -145z m-117 63 c-3 -7 -5 -2 -5 12 0 14 2 19 5 13 2 -7 2 -19 0
-25z m201 -53 c0 -16 -2 -15 -8 5 -4 14 -8 34 -8 45 0 16 2 15 8 -5 4 -14 8
-34 8 -45z m497 35 c10 -11 16 -20 13 -20 -3 0 -13 9 -23 20 -10 11 -16 20
-13 20 3 0 13 -9 23 -20z m-688 -47 c-3 -10 -5 -4 -5 12 0 17 2 24 5 18 2 -7
2 -21 0 -30z m-168 -83 c-14 -87 -24 -100 -25 -33 -1 30 2 50 6 43 4 -7 10 2
14 25 12 62 16 33 5 -35z m368 48 c-3 -8 -6 -5 -6 6 -1 11 2 17 5 13 3 -3 4
-12 1 -19z m-2248 -232 c7 -9 11 -42 9 -86 l-3 -72 -150 -4 c-82 -3 -179 0
-215 4 -52 8 -24 10 146 11 l211 1 -2 28 c-1 15 -3 37 -3 50 -1 13 -8 22 -14
21 -25 -4 -98 14 -98 23 0 6 24 8 55 6 30 -1 55 0 55 5 0 4 -96 8 -212 9 -190
2 -200 3 -93 8 237 12 302 11 314 -4z m574 4 l27 0 0 -79 c0 -73 -2 -79 -22
-85 -30 -8 -482 -8 -502 0 -13 5 -16 22 -16 85 l0 78 78 4 c42 2 151 3 242 1
91 -2 177 -4 193 -4z m472 -9 c-22 -4 -71 -24 -109 -44 -58 -31 -66 -34 -48
-14 12 13 19 27 15 30 -3 4 9 7 28 7 19 0 41 5 49 10 10 7 -29 10 -120 10 -91
0 -130 -3 -120 -10 8 -5 24 -10 35 -11 11 0 14 -3 8 -6 -18 -7 -16 -53 2 -53
9 0 12 -6 8 -17 -5 -12 -3 -14 8 -8 12 8 12 6 0 -8 -9 -11 -28 -17 -57 -17
-38 0 -44 3 -44 21 0 11 -4 18 -9 14 -5 -3 -12 3 -14 12 -3 10 -5 1 -6 -19
l-1 -38 123 -1 122 -2 -79 -9 c-44 -6 -104 -7 -133 -3 l-53 6 0 80 0 79 218
-1 c119 -1 199 -5 177 -8z m-1484 -53 c-4 -35 -6 -38 -9 -15 -3 26 3 57 10 57
2 0 1 -19 -1 -42z m1417 -85 c-10 -2 -28 -2 -40 0 -13 2 -5 4 17 4 22 1 32 -1
23 -4z m3788 -38 c25 -38 6 -75 -39 -75 -38 0 -57 15 -57 46 0 53 67 73 96 29z
m-8900 -150 c8 -20 -13 -45 -32 -38 -14 5 -19 34 -7 46 11 12 33 7 39 -8z
m8804 -353 c-1 -18 -19 -34 -36 -30 -22 4 -31 37 -13 49 13 8 49 -6 49 -19z
m-8620 -62 c23 -42 -19 -92 -59 -70 -46 24 -32 90 19 90 19 0 33 -7 40 -20z
m3693 -1511 c138 -13 249 -32 137 -24 -100 7 -310 14 -267 9 42 -6 41 -23 -1
-26 -15 0 37 -4 114 -8 150 -8 446 -41 426 -48 -6 -2 -78 3 -159 12 -361 37
-624 29 -949 -31 -103 -18 -149 -12 -101 14 69 36 329 97 452 106 111 8 233 6
348 -4z m2805 4 c-21 -2 -57 -2 -80 0 -24 2 -7 4 37 4 44 0 63 -2 43 -4z
m-170 -10 c-16 -2 -40 -2 -55 0 -16 2 -3 4 27 4 30 0 43 -2 28 -4z m247 -3 c8
-13 -5 -13 -25 0 -13 8 -13 10 2 10 9 0 20 -4 23 -10z m-352 -7 c-7 -2 -21 -2
-30 0 -10 3 -4 5 12 5 17 0 24 -2 18 -5z m-70 -10 c-7 -2 -19 -2 -25 0 -7 3
-2 5 12 5 14 0 19 -2 13 -5z m385 0 c-10 -2 -28 -2 -40 0 -13 2 -5 4 17 4 22
1 32 -1 23 -4z m-2790 -10 c-16 -2 -40 -2 -55 0 -16 2 -3 4 27 4 30 0 43 -2
28 -4z m339 -24 c136 -28 179 -40 142 -39 -29 1 -333 68 -312 69 12 1 89 -13
170 -30z m2020 25 c-3 -3 -12 -4 -19 -1 -8 3 -5 6 6 6 11 1 17 -2 13 -5z m311
-1 c-15 -2 -42 -2 -60 0 -18 2 -6 4 27 4 33 0 48 -2 33 -4z m-115 -10 c-13 -2
-33 -2 -45 0 -13 2 -3 4 22 4 25 0 35 -2 23 -4z m-286 -9 c-3 -3 -12 -4 -19
-1 -8 3 -5 6 6 6 11 1 17 -2 13 -5z m206 -1 c-7 -2 -21 -2 -30 0 -10 3 -4 5
12 5 17 0 24 -2 18 -5z m-246 -9 c-3 -3 -12 -4 -19 -1 -8 3 -5 6 6 6 11 1 17
-2 13 -5z m161 -1 c-10 -2 -26 -2 -35 0 -10 3 -2 5 17 5 19 0 27 -2 18 -5z
m-65 -10 c-7 -2 -21 -2 -30 0 -10 3 -4 5 12 5 17 0 24 -2 18 -5z m-70 -10 c-7
-2 -19 -2 -25 0 -7 3 -2 5 12 5 14 0 19 -2 13 -5z m-56 -9 c-3 -3 -12 -4 -19
-1 -8 3 -5 6 6 6 11 1 17 -2 13 -5z m-1784 -11 c-7 -2 -21 -2 -30 0 -10 3 -4
5 12 5 17 0 24 -2 18 -5z m70 -10 c-7 -2 -21 -2 -30 0 -10 3 -4 5 12 5 17 0
24 -2 18 -5z m77 -3 c13 -9 13 -10 0 -10 -8 0 -22 5 -30 10 -13 9 -13 10 0 10
8 0 22 -5 30 -10z m-1738 -261 l36 0 7 -73 c8 -88 5 -110 -18 -114 -12 -3 -23
10 -38 45 -11 26 -28 56 -36 66 -23 25 -78 22 -97 -5 -36 -52 -12 -104 88
-194 101 -90 121 -124 121 -211 0 -77 -13 -106 -67 -146 -33 -25 -114 -33
-161 -18 -26 9 -42 9 -55 2 -34 -18 -43 8 -40 105 4 104 18 119 49 47 29 -69
55 -93 100 -93 28 0 42 6 53 22 38 54 10 125 -79 203 -111 98 -146 169 -125
255 20 83 80 123 170 114 30 -3 72 -5 92 -5z m1395 -6 c79 -37 123 -153 123
-320 0 -170 -44 -278 -127 -315 -105 -46 -210 11 -243 131 -43 159 -28 351 33
442 50 75 136 100 214 62z m2345 6 c46 1 50 -11 46 -119 -3 -67 -5 -75 -23
-75 -14 0 -24 13 -38 50 -24 66 -43 85 -83 85 -27 0 -36 -6 -49 -30 -34 -65
-41 -303 -13 -415 27 -108 114 -113 154 -10 17 46 48 62 61 30 11 -30 -19
-104 -53 -135 -96 -83 -234 -28 -277 111 -40 129 -30 328 21 423 38 71 88 99
162 91 30 -4 72 -6 92 -6z m898 -2 l35 -2 0 -90 c0 -83 -2 -90 -20 -90 -14 0
-22 10 -28 37 -25 108 -147 121 -147 16 0 -37 8 -48 104 -147 95 -99 105 -113
117 -165 32 -144 -76 -244 -223 -206 -34 8 -52 9 -61 2 -29 -24 -40 4 -41 100
-1 85 1 93 18 93 14 0 23 -12 33 -42 20 -59 55 -93 95 -93 42 0 54 8 68 44 20
53 3 85 -96 186 -127 130 -149 192 -103 287 30 62 76 85 154 78 33 -3 76 -6
95 -8z m-5665 -20 c4 -13 5 -50 3 -82 -2 -48 -7 -60 -21 -63 -12 -3 -22 9 -36
41 -21 48 -35 57 -87 57 l-34 0 0 -105 c0 -103 0 -105 23 -105 13 0 34 11 47
25 12 13 27 22 31 19 12 -7 11 -151 -1 -159 -5 -3 -17 6 -26 20 -11 17 -25 25
-45 25 l-29 0 0 -115 0 -115 27 -6 c38 -10 74 14 103 69 16 29 32 47 43 47 16
0 17 -9 15 -87 l-3 -88 -164 -3 c-167 -3 -206 5 -170 31 36 27 39 52 38 287 0
217 -8 290 -30 290 -5 0 -9 9 -9 20 0 19 7 20 160 20 158 0 160 0 165 -23z
m315 9 c0 -7 -7 -19 -15 -26 -13 -10 -15 -54 -15 -275 0 -291 -3 -278 65 -265
24 4 35 15 55 58 16 35 29 52 40 50 12 -3 15 -20 15 -88 l0 -85 -167 -3 c-179
-3 -194 2 -148 43 19 17 20 31 20 277 0 244 -1 261 -20 285 -11 14 -17 29 -14
34 3 5 45 9 95 9 69 0 89 -3 89 -14z m1124 5 c4 -5 31 -132 61 -281 58 -288
57 -283 88 -317 31 -34 14 -43 -84 -43 -69 0 -89 3 -89 14 0 7 7 19 15 26 17
14 19 47 5 84 -9 24 -14 26 -70 26 -56 0 -61 -2 -70 -26 -15 -37 -12 -74 5
-80 8 -4 15 -15 15 -25 0 -17 -8 -19 -80 -19 -86 0 -99 10 -60 45 25 22 29 37
87 318 38 186 45 232 35 248 -7 10 -12 23 -12 29 0 13 147 14 154 1z m510 -5
c102 -43 126 -176 46 -256 l-37 -37 34 -17 c68 -33 94 -151 51 -236 -37 -72
-83 -90 -234 -90 -132 0 -150 7 -115 44 20 21 21 32 21 281 0 249 -1 260 -21
281 -12 12 -18 27 -14 33 10 17 228 14 269 -3z m937 3 c122 -41 155 -214 58
-308 -21 -21 -34 -42 -30 -47 4 -5 25 -57 46 -116 20 -59 46 -115 56 -124 38
-34 24 -45 -48 -42 l-68 3 -42 129 c-38 117 -53 145 -75 146 -5 0 -8 -49 -8
-108 0 -96 2 -111 20 -127 41 -37 27 -45 -75 -45 -102 0 -116 8 -75 45 19 17
20 31 20 275 0 242 -1 259 -20 283 -11 14 -20 30 -20 36 0 15 216 15 261 0z
m692 0 c53 -14 112 -71 134 -127 14 -38 18 -76 18 -192 0 -130 -2 -150 -22
-190 -28 -56 -77 -104 -122 -119 -45 -15 -251 -15 -251 0 0 6 9 22 20 36 19
24 20 41 20 278 0 237 -1 254 -20 278 -11 14 -20 30 -20 36 0 14 192 15 243 0z
m567 -75 c0 -76 -2 -85 -17 -82 -10 2 -24 17 -32 33 -23 51 -41 65 -83 65
l-38 0 0 -105 0 -105 25 0 c14 0 30 9 37 20 7 11 21 20 30 20 16 0 18 -10 18
-75 0 -59 -3 -75 -15 -75 -8 0 -19 9 -25 20 -7 13 -21 20 -40 20 l-30 0 0
-114 c0 -114 0 -114 25 -120 41 -10 78 14 103 67 22 47 47 61 58 32 4 -9 3
-49 -1 -90 l-7 -75 -163 0 c-90 0 -166 4 -169 9 -3 5 3 20 14 34 19 24 20 41
20 285 0 244 -1 260 -20 282 -11 12 -17 27 -14 31 3 5 77 9 165 9 l159 0 0
-86z m1025 64 c2 -13 27 -137 55 -276 55 -273 60 -291 84 -311 9 -7 16 -20 16
-27 0 -11 -20 -14 -89 -14 -98 0 -114 9 -84 43 17 19 18 29 11 65 l-9 43 -67
-3 -66 -3 -8 -39 c-7 -33 -5 -43 12 -61 36 -38 26 -45 -59 -45 -44 0 -82 4
-85 9 -3 5 5 20 18 34 13 14 29 48 34 74 87 418 97 473 84 493 -20 33 -6 40
73 40 69 0 75 -2 80 -22z m899 14 c2 -4 30 -134 60 -287 40 -199 62 -288 76
-307 11 -15 20 -32 20 -38 0 -6 -34 -10 -90 -10 -75 0 -90 3 -90 16 0 8 7 22
15 31 14 14 13 69 -2 96 -2 4 -33 7 -67 7 -58 0 -64 -2 -70 -22 -10 -40 -6
-78 9 -84 8 -4 15 -15 15 -25 0 -17 -8 -19 -80 -19 -87 0 -96 7 -59 46 24 25
31 54 90 338 32 158 38 205 30 223 -6 13 -11 28 -11 33 0 12 147 13 154 2z
m-6694 -242 c33 -33 20 -83 -27 -101 -38 -14 -510 25 -569 48 -24 9 -12 36 22
45 53 14 222 25 392 27 150 1 164 -1 182 -19z m7459 6 c149 -14 193 -26 161
-46 -36 -23 -265 -58 -426 -67 -119 -6 -121 -6 -137 18 -24 34 -21 64 9 88 23
18 40 21 133 21 58 -1 175 -7 260 -14z m-7534 -475 c395 -344 797 -610 1260
-837 328 -160 560 -250 890 -344 305 -86 601 -143 920 -177 227 -24 810 -24
1020 0 386 45 750 125 1100 241 232 78 403 150 639 268 365 182 714 413 1034
682 59 50 107 84 114 80 6 -4 8 -3 5 3 -4 6 31 47 77 92 l84 81 68 1 c38 1 81
2 96 3 l26 2 -40 -48 c-97 -116 -395 -381 -613 -546 -750 -566 -1611 -909
-2560 -1019 -191 -22 -834 -25 -1020 -5 -714 77 -1285 240 -1890 537 -519 256
-1028 610 -1402 977 -57 56 -103 101 -103 102 0 1 44 -1 97 -3 l98 -3 100 -87z
m1509 -330 c196 -87 283 -121 479 -186 551 -184 1067 -268 1632 -267 541 1
1033 86 1555 267 237 82 257 88 275 81 25 -9 6 -28 -63 -66 -227 -123 -689
-270 -1032 -329 -281 -48 -389 -56 -755 -55 -375 0 -504 10 -787 60 -537 93
-1114 299 -1437 513 -14 9 -7 31 11 31 5 0 60 -22 122 -49z"/>
<path d="M3455 8334 c-106 -54 -177 -207 -249 -532 -98 -440 -183 -1184 -156
-1373 19 -130 66 -200 170 -248 48 -22 68 -25 160 -25 68 0 128 6 170 17 86
23 229 92 337 164 105 69 288 245 299 287 10 42 -18 94 -62 112 -43 18 -50 15
-206 -91 -189 -128 -416 -228 -482 -211 -14 3 -37 16 -51 29 -44 38 -51 117
-31 350 37 419 138 925 272 1351 21 67 23 84 13 113 -21 64 -114 93 -184 57z"/>
<path d="M4835 8077 c-30 -26 -34 -34 -20 -32 31 2 62 23 68 45 7 28 -4 25
-48 -13z"/>
<path d="M4900 8080 c-6 -11 -8 -20 -6 -20 3 0 10 9 16 20 6 11 8 20 6 20 -3
0 -10 -9 -16 -20z"/>
<path d="M5564 8058 l-19 -23 23 19 c21 18 27 26 19 26 -2 0 -12 -10 -23 -22z"/>
<path d="M4959 7979 l-24 -20 28 17 c15 9 27 18 27 20 0 8 -8 4 -31 -17z"/>
<path d="M4676 7955 c-11 -8 -15 -15 -9 -15 6 0 16 7 23 15 16 19 11 19 -14 0z"/>
<path d="M4848 7700 c-146 -37 -274 -116 -399 -247 -268 -280 -345 -612 -184
-791 83 -93 204 -112 328 -54 75 35 193 142 264 239 26 34 47 62 49 60 1 -1
-2 -54 -7 -117 -14 -177 8 -304 65 -387 64 -94 175 -126 288 -83 142 53 324
272 478 574 72 141 73 158 7 164 -34 3 -37 0 -88 -75 -202 -301 -354 -462
-414 -439 -35 13 -48 74 -42 196 8 141 24 233 79 449 55 212 58 309 15 383
-29 49 -84 94 -152 122 -63 27 -196 29 -287 6z m153 -226 c55 -67 -209 -498
-382 -624 -102 -73 -156 -5 -113 141 54 180 225 388 388 469 67 34 88 37 107
14z"/>
<path d="M5899 7473 c-13 -16 -12 -17 4 -4 9 7 17 15 17 17 0 8 -8 3 -21 -13z"/>
<path d="M5892 7430 c-7 -11 -8 -20 -3 -20 9 0 24 30 18 36 -1 2 -8 -6 -15
-16z"/>
<path d="M5599 7343 c-13 -16 -12 -17 4 -4 9 7 17 15 17 17 0 8 -8 3 -21 -13z"/>
<path d="M3960 7288 c-29 -18 -60 -44 -68 -58 -13 -20 -9 -18 18 8 38 37 89
67 98 57 4 -3 -1 -20 -10 -36 -17 -29 -17 -29 42 11 33 23 60 43 60 47 0 3
-11 -2 -24 -10 -18 -12 -26 -13 -36 -4 -10 10 -12 8 -7 -5 4 -10 2 -18 -3 -18
-9 0 -14 14 -11 33 2 11 0 10 -59 -25z"/>
<path d="M5542 7215 c0 -16 2 -22 5 -12 2 9 2 23 0 30 -3 6 -5 -1 -5 -18z"/>
<path d="M5697 7213 c-3 -5 24 -8 60 -8 37 -1 57 2 47 6 -25 10 -102 11 -107
2z"/>
<path d="M3863 7188 c-15 -20 -25 -38 -20 -38 3 0 12 11 21 25 17 26 16 35 -1
13z"/>
<path d="M2770 7059 c-17 -13 -18 -17 -5 -10 33 17 51 31 40 31 -5 0 -21 -10
-35 -21z"/>
<path d="M7260 6437 c0 -5 7 -34 16 -65 15 -50 18 -54 25 -33 7 17 3 33 -16
64 -14 23 -25 38 -25 34z"/>
<path d="M3740 6039 c-327 -89 -741 -495 -989 -969 -276 -529 -359 -1143 -202
-1503 66 -152 197 -276 347 -327 397 -137 867 142 1357 807 45 61 85 112 88
112 4 1 3 -18 -2 -41 -4 -24 -13 -119 -20 -211 -22 -292 10 -429 112 -483 48
-24 117 -35 158 -24 60 16 86 53 125 176 60 193 125 354 221 549 129 260 275
488 341 532 23 14 27 15 41 1 13 -14 14 -45 4 -274 -20 -449 9 -623 119 -717
22 -19 61 -40 86 -47 59 -17 149 -8 204 20 51 26 132 100 161 146 11 19 24 34
27 34 4 0 15 -22 24 -48 34 -94 123 -184 215 -216 215 -75 437 51 564 319 44
93 84 240 94 342 l7 71 47 7 c150 21 289 92 279 141 -7 35 -32 39 -145 21 -59
-9 -124 -17 -144 -17 l-37 0 -7 56 c-10 80 -43 192 -72 247 -75 137 -233 215
-381 188 -37 -6 -91 -23 -120 -37 -143 -69 -239 -244 -205 -374 8 -31 5 -43
-28 -105 -21 -38 -54 -124 -74 -190 -39 -131 -78 -205 -142 -273 -30 -32 -47
-43 -65 -40 -42 6 -47 47 -47 391 -1 248 -4 335 -17 394 -30 149 -85 234 -176
273 -153 66 -339 -42 -542 -315 -84 -112 -146 -208 -146 -225 0 -5 -5 -12 -12
-16 -7 -5 -9 -1 -5 12 3 10 24 87 47 169 53 190 143 462 227 680 133 346 166
470 144 538 -24 71 -120 126 -196 111 -185 -34 -362 -429 -546 -1213 l-50
-214 -82 -105 c-258 -330 -547 -621 -765 -770 -308 -211 -501 -210 -598 3 -33
71 -47 170 -46 320 1 314 91 654 267 1010 143 290 314 533 478 677 156 137
268 189 335 154 39 -20 51 -41 62 -114 19 -112 -8 -256 -105 -562 -48 -151
-51 -186 -18 -222 32 -36 106 -16 171 46 53 49 110 156 151 284 48 144 66 271
58 400 -13 209 -91 344 -236 410 -79 36 -233 41 -341 11z m2755 -1345 c31 -31
47 -77 52 -151 l6 -75 -30 15 c-43 22 -90 80 -104 126 -22 75 28 132 76 85z
m-3554 -21 c-12 -20 -14 -14 -5 12 4 9 9 14 11 11 3 -2 0 -13 -6 -23z m-17
-127 c-3 -15 -8 -25 -11 -23 -2 3 -1 17 3 31 3 15 8 25 11 23 2 -3 1 -17 -3
-31z m-63 -132 c-32 -117 -56 -266 -66 -406 -6 -93 10 -292 26 -317 7 -11 8 0
2 34 -4 28 -8 129 -8 225 1 157 4 191 33 330 35 171 51 234 58 228 2 -3 -5
-40 -16 -84 -65 -265 -83 -569 -42 -737 31 -126 83 -217 152 -263 50 -34 23
-30 -33 6 -75 47 -136 143 -162 253 -50 214 -37 436 42 722 33 121 35 126 40
121 2 -2 -9 -53 -26 -112z m3568 -73 c40 -17 80 -31 88 -31 22 0 12 -73 -27
-215 -74 -265 -184 -396 -254 -302 -19 25 -21 42 -20 140 0 79 7 138 22 199
25 102 90 251 106 244 6 -3 44 -19 85 -35z m80 -624 c-2 -1 -13 -9 -24 -17
-19 -14 -19 -14 -6 3 7 9 18 17 24 17 6 0 8 -1 6 -3z"/>
<path d="M2850 3600 c0 -14 48 -100 55 -100 4 0 -43 99 -51 109 -2 2 -4 -2 -4
-9z"/>
<path d="M7555 5210 c-154 -27 -352 -56 -440 -65 -302 -30 -308 -31 -332 -60
-55 -64 3 -176 105 -205 86 -24 301 -2 609 61 220 44 233 47 233 42 0 -2 -54
-73 -119 -157 -227 -291 -543 -738 -716 -1015 -92 -148 -180 -326 -196 -399
-18 -80 1 -153 55 -206 76 -77 169 -83 338 -25 90 31 118 43 483 214 142 66
294 127 410 166 85 28 117 33 215 35 63 2 118 3 121 4 30 1 11 80 -32 140 -23
32 -27 41 -13 36 76 -29 206 -12 299 40 66 37 229 196 291 284 27 38 53 69 57
70 5 0 6 -4 3 -8 -3 -5 -12 -55 -22 -113 -23 -150 -16 -408 15 -498 12 -35 30
-76 38 -90 31 -49 98 -113 148 -139 44 -24 61 -27 150 -27 96 0 104 2 177 37
125 63 237 173 359 357 125 188 249 459 319 692 44 150 40 174 -32 185 -50 9
-70 -15 -132 -152 -189 -422 -463 -794 -584 -794 -10 0 -29 12 -43 26 -23 25
-24 30 -23 182 1 210 30 350 154 762 17 58 38 128 47 155 54 179 53 233 -3
295 -44 49 -90 70 -151 70 -56 0 -99 -23 -137 -73 l-27 -35 -51 20 c-80 30
-195 26 -306 -11 -153 -51 -271 -130 -413 -278 -220 -228 -354 -532 -319 -724
14 -77 31 -112 79 -163 24 -26 30 -36 16 -31 -11 5 -62 10 -112 13 -173 8
-421 -63 -811 -232 l-84 -36 23 38 c30 50 260 395 301 452 482 663 518 717
576 837 50 106 55 181 17 259 -18 37 -40 64 -68 82 -64 43 -140 40 -472 -18z
m1525 -431 c0 -42 -115 -250 -224 -404 -140 -199 -298 -355 -359 -355 -39 0
-51 23 -43 86 25 215 272 549 492 664 70 37 134 41 134 9z m-1650 -703 c0 -2
-8 -10 -17 -17 -16 -13 -17 -12 -4 4 13 16 21 21 21 13z m-110 -160 c0 -2 -8
-10 -17 -17 -16 -13 -17 -12 -4 4 13 16 21 21 21 13z m1877 -98 c-2 -13 -4 -3
-4 22 0 25 2 35 4 23 2 -13 2 -33 0 -45z m-30 -30 c-3 -7 -5 -2 -5 12 0 14 2
19 5 13 2 -7 2 -19 0 -25z m-2083 -213 c-9 -14 -18 -25 -21 -25 -5 0 5 18 20
38 17 22 18 13 1 -13z"/>
<path d="M7330 4759 c-78 -18 -308 -41 -364 -35 -47 5 -57 3 -53 -8 3 -8 11
-34 18 -57 18 -63 24 -68 67 -58 56 13 123 11 180 -6 29 -9 57 -13 62 -10 11
7 140 172 140 179 0 7 -4 7 -50 -5z"/>
<path d="M4796 11840 c-103 -41 -168 -138 -203 -301 -22 -105 -25 -418 -4
-554 93 -630 371 -1176 738 -1455 87 -66 228 -134 320 -154 191 -42 366 8 494
141 73 76 93 105 129 197 43 106 60 207 61 351 1 294 -95 584 -306 925 -130
210 -334 444 -509 584 -47 38 -84 72 -81 74 7 7 139 -102 232 -191 45 -44 117
-121 159 -173 43 -51 81 -91 85 -88 4 2 15 -3 24 -12 36 -36 21 -5 -29 61 -58
76 -165 181 -236 232 -25 18 -83 65 -130 104 -86 72 -129 101 -116 80 10 -16
-1 -14 -30 6 -14 9 -21 19 -15 22 6 4 1 13 -12 20 -20 13 -21 13 -8 -2 18 -22
5 -21 -27 2 -15 10 -58 34 -97 53 -178 89 -341 118 -439 78z m702 -645 c61
-88 95 -145 88 -145 -3 0 -46 62 -96 138 -89 136 -84 141 8 7z m-814 -125 c25
-50 21 -51 -11 -3 -12 17 -12 17 -6 -1 4 -13 3 -17 -5 -12 -7 4 -12 23 -12 43
0 43 0 43 34 -27z m-17 -117 c-3 -10 -5 -4 -5 12 0 17 2 24 5 18 2 -7 2 -21 0
-30z m1003 -43 c17 -33 28 -60 25 -60 -2 0 -18 27 -35 60 -17 33 -28 60 -25
60 2 0 18 -27 35 -60z m-993 -22 c-3 -8 -6 -5 -6 6 -1 11 2 17 5 13 3 -3 4
-12 1 -19z m100 -260 c-3 -8 -6 -5 -6 6 -1 11 2 17 5 13 3 -3 4 -12 1 -19z
m148 -444 c9 -15 12 -23 6 -20 -11 7 -35 46 -28 46 3 0 12 -12 22 -26z m235
-339 c28 -38 -52 40 -103 100 -51 60 -51 60 19 -10 38 -39 76 -80 84 -90z"/>
<path d="M4511 11654 c0 -11 3 -14 6 -6 3 7 2 16 -1 19 -3 4 -6 -2 -5 -13z"/>
<path d="M5936 11150 c15 -30 146 -230 151 -230 5 0 7 -4 -62 105 -48 77 -105
157 -89 125z"/>
<path d="M6316 9755 c4 -8 8 -15 10 -15 2 0 4 7 4 15 0 8 -4 15 -10 15 -5 0
-7 -7 -4 -15z"/>
<path d="M6315 9688 c-4 -16 -10 -28 -14 -28 -4 0 -28 -33 -54 -72 -63 -100
-146 -178 -237 -224 -41 -21 -69 -39 -62 -42 10 -3 10 -7 1 -18 -25 -30 119
33 184 81 107 78 219 252 198 307 -9 23 -9 23 -16 -4z m-71 -140 c-5 -8 -2 -9
10 -5 14 5 15 3 6 -13 -5 -10 -14 -21 -19 -24 -14 -9 -23 25 -10 40 14 17 23
18 13 2z"/>
<path d="M5456 9349 c44 -22 98 -42 120 -44 30 -4 33 -3 14 4 l-25 8 28 8 c15
4 27 11 27 16 0 5 7 9 15 9 8 0 15 -4 15 -8 0 -5 16 -9 35 -10 19 -1 35 3 35
8 0 6 -8 10 -17 10 -10 0 -57 10 -105 22 -75 19 -92 21 -121 10 -25 -9 -42
-10 -61 -2 -56 21 -38 7 40 -31z"/>
<path d="M9361 10382 c18 -24 55 -73 81 -109 54 -75 66 -88 48 -53 -20 39
-105 152 -136 180 -24 21 -23 19 7 -18z"/>
<path d="M9521 10153 c19 -49 65 -143 71 -143 8 0 -13 64 -36 108 -15 29 -43
57 -35 35z"/>
<path d="M9605 9959 c24 -75 54 -152 54 -141 2 25 -42 162 -51 162 -5 0 -6 -9
-3 -21z"/>
<path d="M9662 9790 c0 -8 4 -26 8 -40 6 -20 8 -21 8 -5 0 11 -3 29 -8 40 -5
12 -8 14 -8 5z"/>
<path d="M9681 9694 c0 -11 3 -14 6 -6 3 7 2 16 -1 19 -3 4 -6 -2 -5 -13z"/>
<path d="M3780 9909 c-8 -10 -20 -19 -27 -19 -6 0 -15 -9 -18 -20 -4 -11 -11
-17 -17 -14 -8 5 -9 1 -3 -12 19 -46 17 -111 -3 -158 l-21 -47 27 20 c15 10
36 29 47 42 l20 24 -20 -15 c-11 -8 -26 -22 -33 -30 -8 -8 -10 -9 -7 -2 4 7
10 34 13 59 6 40 11 48 34 54 17 4 29 3 31 -4 8 -22 19 63 13 98 -8 43 -18 50
-36 24z"/>
<path d="M10250 10079 c-22 -18 -22 -19 -3 -10 12 6 25 16 28 21 9 15 3 12
-25 -11z"/>
<path d="M8263 9727 c-53 -15 -61 -24 -38 -41 10 -7 16 -17 13 -22 -3 -5 -1
-14 6 -20 18 -17 112 12 97 30 -6 7 -8 16 -4 20 4 4 0 4 -9 1 -9 -4 -19 -1
-23 5 -3 6 -1 9 6 8 7 -2 15 5 17 15 4 19 -5 20 -65 4z"/>
<path d="M7838 9507 c-35 -31 -35 -32 -17 -49 10 -10 19 -15 19 -12 0 4 6 1
14 -5 18 -15 80 27 84 58 3 19 1 21 -14 13 -14 -8 -22 -6 -34 8 -15 18 -17 17
-52 -13z"/>
<path d="M10648 9383 c7 -3 16 -2 19 1 4 3 -2 6 -13 5 -11 0 -14 -3 -6 -6z"/>
<path d="M10635 9350 c3 -5 11 -10 16 -10 6 0 7 5 4 10 -3 6 -11 10 -16 10 -6
0 -7 -4 -4 -10z"/>
<path d="M10751 9290 c14 -31 19 -36 19 -24 0 6 -7 19 -16 30 -14 18 -14 18
-3 -6z"/>
<path d="M10743 9231 c18 -33 33 -58 35 -57 7 8 -34 95 -49 104 -14 9 -10 -3
14 -47z"/>
<path d="M10881 9317 c2 -1 13 -9 24 -17 19 -14 19 -14 6 3 -7 9 -18 17 -24
17 -6 0 -8 -1 -6 -3z"/>
<path d="M10940 9277 c0 -3 19 -20 43 -38 23 -19 36 -26 28 -16 -16 20 -71 61
-71 54z"/>
<path d="M10001 9254 c13 -15 34 -19 25 -5 -4 5 0 11 6 14 7 2 1 4 -15 4 -22
0 -25 -2 -16 -13z"/>
<path d="M10305 8905 c5 -39 5 -39 -9 -15 -24 40 -19 22 29 -100 25 -63 43
-103 40 -87 -3 15 -1 27 5 27 5 0 11 -3 11 -7 1 -5 3 -17 4 -28 2 -11 8 -31
14 -45 9 -22 10 -20 5 15 -10 61 -51 184 -80 235 l-25 45 6 -40z"/>
<path d="M5860 8971 c-6 -13 -8 -21 -2 -17 6 3 10 -6 9 -22 0 -50 3 -62 18
-62 12 0 14 8 9 43 -4 23 -10 51 -14 62 -7 18 -8 18 -20 -4z"/>
<path d="M5624 8908 l-29 -33 33 29 c30 28 37 36 29 36 -2 0 -16 -15 -33 -32z"/>
<path d="M5779 8863 c-13 -16 -12 -17 4 -4 9 7 17 15 17 17 0 8 -8 3 -21 -13z"/>
<path d="M6354 8808 c-5 -7 -3 -8 6 -3 9 6 12 4 8 -7 -4 -8 0 -15 7 -15 10 0
11 5 4 19 -11 21 -15 22 -25 6z"/>
<path d="M5289 8793 c-13 -16 -12 -17 4 -4 9 7 17 15 17 17 0 8 -8 3 -21 -13z"/>
<path d="M4999 8753 c-13 -16 -12 -17 4 -4 9 7 17 15 17 17 0 8 -8 3 -21 -13z"/>
<path d="M6195 8740 c10 -34 26 -50 20 -20 -2 13 -10 28 -16 34 -8 8 -9 4 -4
-14z"/>
<path d="M5816 8705 c-9 -26 -7 -32 5 -12 6 10 9 21 6 23 -2 3 -7 -2 -11 -11z"/>
<path d="M5326 8653 c-6 -14 -5 -15 5 -6 7 7 10 15 7 18 -3 3 -9 -2 -12 -12z"/>
<path d="M5951 8554 c0 -11 3 -14 6 -6 3 7 2 16 -1 19 -3 4 -6 -2 -5 -13z"/>
<path d="M5961 8515 c0 -11 4 -29 9 -40 8 -18 9 -18 9 5 0 14 -4 32 -9 40 -8
12 -10 12 -9 -5z"/>
<path d="M5751 8474 c0 -11 3 -14 6 -6 3 7 2 16 -1 19 -3 4 -6 -2 -5 -13z"/>
<path d="M5554 8368 l-19 -23 23 19 c21 18 27 26 19 26 -2 0 -12 -10 -23 -22z"/>
<path d="M6690 8386 c0 -2 8 -10 18 -17 15 -13 16 -12 3 4 -13 16 -21 21 -21
13z"/>
<path d="M6963 8117 c0 -8 6 -14 14 -14 9 0 10 4 2 14 -6 7 -12 13 -14 13 -1
0 -2 -6 -2 -13z"/>
<path d="M3000 8714 c0 -15 10 -17 34 -8 24 9 19 19 -9 20 -15 1 -25 -3 -25
-12z"/>
<path d="M6791 8449 c19 -26 35 -45 37 -44 2 2 5 15 6 29 3 28 -16 52 -34 41
-6 -4 -18 -1 -27 7 -9 7 -1 -8 18 -33z"/>
<path d="M5901 8169 c-21 -69 -22 -75 -9 -49 9 17 21 25 36 24 25 -1 27 5 10
41 -16 35 -23 32 -37 -16z"/>
<path d="M5942 8010 c0 -14 2 -19 5 -12 2 6 2 18 0 25 -3 6 -5 1 -5 -13z"/>
<path d="M5931 7964 c0 -11 3 -14 6 -6 3 7 2 16 -1 19 -3 4 -6 -2 -5 -13z"/>
<path d="M6760 7888 c24 -27 45 -48 47 -48 8 0 0 9 -44 50 l-48 45 45 -47z"/>
<path d="M6650 7785 c13 -14 26 -25 28 -25 3 0 -5 11 -18 25 -13 14 -26 25
-28 25 -3 0 5 -11 18 -25z"/>
<path d="M6948 7719 c12 -14 19 -29 15 -34 -5 -4 -2 -5 5 -1 8 5 22 0 34 -11
12 -10 18 -13 15 -6 -4 6 -26 26 -50 44 -33 26 -37 27 -19 8z"/>
<path d="M7287 7544 c18 -22 40 -47 50 -55 10 -8 3 4 -14 27 -18 22 -40 47
-50 55 -10 8 -3 -4 14 -27z"/>
<path d="M7100 7496 c0 -2 8 -10 18 -17 15 -13 16 -12 3 4 -13 16 -21 21 -21
13z"/>
<path d="M7370 7447 c0 -3 7 -13 17 -22 14 -14 14 -18 2 -27 -11 -8 -11 -9 3
-4 12 3 15 1 11 -9 -3 -8 -9 -12 -14 -9 -5 3 -9 3 -9 0 0 -3 9 -10 20 -16 16
-8 20 -8 18 2 -2 7 3 12 10 10 9 -2 7 7 -7 26 -21 30 -51 59 -51 49z"/>
<path d="M5335 7879 c-9 -17 -15 -33 -13 -35 3 -2 12 12 21 31 21 43 13 47 -8
4z"/>
<path d="M5200 8027 c-29 -25 -65 -67 -59 -67 3 0 25 20 49 45 47 48 52 59 10
22z"/>
<path d="M5165 7959 c-4 -6 -5 -12 -2 -15 2 -3 7 2 10 11 7 17 1 20 -8 4z"/>
<path d="M5087 7912 c-21 -23 -21 -29 -2 -29 8 0 13 2 10 5 -2 3 0 13 6 23 12
24 7 24 -14 1z"/>
<path d="M8091 7724 c13 -16 29 -19 29 -5 0 5 -9 11 -21 14 -16 4 -18 3 -8 -9z"/>
<path d="M7462 7543 c-13 -5 53 -62 73 -63 5 0 -7 11 -28 26 -21 14 -35 29
-32 35 7 10 6 10 -13 2z"/>
<path d="M8237 7487 c2 -4 23 -17 45 -28 28 -14 37 -23 28 -29 -8 -5 13 -21
61 -47 41 -22 100 -55 132 -73 32 -17 61 -30 63 -27 3 3 -21 23 -53 45 -32 22
-65 47 -72 56 -18 22 -37 20 -20 -1 13 -16 12 -17 -4 -4 -9 8 -15 16 -12 19 7
7 -15 32 -29 32 -7 0 -6 -4 2 -9 11 -7 10 -9 -3 -14 -9 -4 -14 -3 -11 2 3 5
-17 24 -44 41 -51 32 -63 52 -18 30 19 -11 21 -10 10 1 -13 14 -84 20 -75 6z
m224 -134 c13 -15 12 -15 -8 -4 -24 12 -29 21 -14 21 5 0 15 -7 22 -17z"/>
<path d="M3681 7340 c-19 -89 -14 -105 25 -74 10 8 13 12 5 8 -10 -5 -12 -3
-5 7 13 21 14 42 2 56 -6 7 -8 22 -5 33 3 11 1 20 -3 20 -5 0 -13 -23 -19 -50z"/>
<path d="M6814 7331 c7 -11 46 -35 46 -28 0 3 -12 12 -26 22 -15 9 -23 12 -20
6z"/>
<path d="M7050 7166 c0 -2 8 -10 18 -17 15 -13 16 -12 3 4 -13 16 -21 21 -21
13z"/>
<path d="M7761 6943 c0 -5 19 -24 42 -43 l42 -34 -40 42 c-40 43 -46 47 -44
35z"/>
<path d="M7123 6805 c0 -22 2 -30 4 -17 2 12 2 30 0 40 -3 9 -5 -1 -4 -23z"/>
<path d="M7850 6661 c0 -5 7 -15 17 -22 15 -13 15 -12 4 9 -12 23 -21 28 -21
13z"/>
<path d="M7749 6633 c5 -10 31 -38 57 -63 l48 -45 -53 63 c-53 63 -70 77 -52
45z"/>
<path d="M7453 6473 c5 -12 13 -23 17 -23 4 0 5 11 3 23 -3 13 -11 24 -18 24
-10 0 -11 -6 -2 -24z"/>
<path d="M7510 7122 c0 -5 7 -15 15 -22 8 -7 15 -8 15 -2 0 5 -7 15 -15 22 -8
7 -15 8 -15 2z"/>
<path d="M3908 7020 c-43 -27 -78 -53 -78 -56 0 -4 7 0 16 7 14 11 18 11 28
-1 19 -25 40 -21 62 13 11 17 29 44 38 60 10 15 17 27 15 27 -2 0 -39 -23 -81
-50z"/>
<path d="M2844 6778 l-19 -23 23 19 c21 18 27 26 19 26 -2 0 -12 -10 -23 -22z"/>
<path d="M2489 6113 c-13 -16 -12 -17 4 -4 9 7 17 15 17 17 0 8 -8 3 -21 -13z"/>
<path d="M1936 5965 c-9 -26 -7 -32 5 -12 6 10 9 21 6 23 -2 3 -7 -2 -11 -11z"/>
<path d="M2501 5887 c-6 -15 -14 -40 -18 -55 -6 -24 -5 -26 10 -13 9 7 14 18
10 25 -3 6 -3 8 2 4 10 -10 45 9 45 24 0 9 -3 9 -12 0 -7 -7 -17 -12 -22 -12
-6 0 -5 4 3 9 10 6 11 13 3 27 -10 18 -11 17 -21 -9z"/>
<path d="M7727 6219 c7 -7 15 -10 18 -7 3 3 -2 9 -12 12 -14 6 -15 5 -6 -5z"/>
<path d="M6040 5360 l0 -70 38 2 c36 1 36 1 5 5 l-33 4 0 59 0 60 253 3 252 2
-257 3 -258 2 0 -70z"/>
<path d="M6128 5293 c6 -2 18 -2 25 0 6 3 1 5 -13 5 -14 0 -19 -2 -12 -5z"/>
<path d="M6273 5293 c53 -2 141 -2 195 0 53 1 9 3 -98 3 -107 0 -151 -2 -97
-3z"/>
<path d="M4960 3079 c-36 -12 -43 -16 -20 -12 49 8 119 31 95 31 -11 0 -45 -8
-75 -19z"/>
<path d="M5877 2726 c-25 -25 -37 -108 -37 -251 0 -197 19 -265 74 -265 35 0
53 29 67 104 17 103 7 332 -17 382 -21 44 -60 57 -87 30z"/>
<path d="M4903 2516 c-12 -68 -24 -130 -25 -137 -2 -10 12 -15 50 -17 34 -2
52 1 52 8 0 24 -44 255 -49 262 -3 4 -16 -49 -28 -116z"/>
<path d="M5390 2630 c0 -112 6 -123 59 -96 22 12 33 27 41 56 22 80 -10 140
-72 140 l-28 0 0 -100z"/>
<path d="M5396 2452 c-4 -3 -6 -56 -6 -119 l0 -113 39 0 c58 0 81 33 81 115 0
75 -17 102 -72 114 -20 5 -39 6 -42 3z"/>
<path d="M6340 2609 l0 -121 33 7 c44 10 47 13 63 51 17 40 18 90 3 133 -12
35 -35 51 -73 51 l-26 0 0 -121z"/>
<path d="M7050 2475 l0 -255 30 0 c71 0 100 76 100 264 0 174 -30 246 -102
246 l-28 0 0 -255z"/>
<path d="M8651 2640 c-4 -14 -51 -265 -51 -272 0 -9 93 -11 102 -3 3 3 -5 56
-18 118 -12 61 -24 123 -27 137 -2 14 -5 23 -6 20z"/>
<path d="M9529 2504 c-14 -74 -23 -136 -21 -139 9 -9 91 -5 96 4 5 8 -37 258
-45 266 -2 2 -16 -57 -30 -131z"/>
</g>
</svg>
